<svg id="Calque_1" data-name="Calque 1" xmlns="http://www.w3.org/2000/svg" viewBox="0 0 706.17 706.17"><defs><style>.cls-1{fill:#c1272d;}</style></defs><path class="cls-1" d="M400,46.91C205,46.91,46.91,205,46.91,400S205,753.09,400,753.09,753.09,595,753.09,400,595,46.91,400,46.91ZM355.22,224.52c-3.16-.09-6.83-1.82-10.83-3.76-7.57-3.69-9-9.14-12-12.58,1.46-22.45-3.88-40.33,9.85-52.18,33.62-29,138.82-41.62,176.62-18.33,14.71,9.06,24.54,64.63,24.54,64.63C484,190.55,386.09,225.42,355.22,224.52ZM622.63,401l-.08,0-11.9,2.22c-.06,0-.18.08-.2,0-5.9-25.85-33.06-65-45.08-89.05-1-2.11-10-23.64-5.77-28.74a54.55,54.55,0,0,1,23.76-16.34c19-6.67,34-13.05,47.21-9.81,39.19,9.58,69.83,74.93,58.08,101.77C681,378.59,623.76,400.58,622.63,401Z" transform="translate(-46.91 -46.91)"/></svg>