<svg id="Calque_1" data-name="Calque 1" xmlns="http://www.w3.org/2000/svg" viewBox="0 0 233.34 234.83"><defs><style>.cls-1{fill:#1a1a1a;}</style></defs><path class="cls-1" d="M371,351.66c2.71-9.23.92-12.83-.82-22.35l-3.42-.56.11,1.94-.53.31c-1-1.11-2-2.22-3-3.35-1.57.46-1.3,1.25-.68,2.36,1.58,2.79,3.15,5.6,4.48,8.51.45,1,.19,2.29.26,3.53l-1.52.56c-3.17-1.93-2.55-6.2-6-7.84l-.71-1.86-2.7.8c.26-1.26.44-2.11.65-3.1l-1.78-.15-3.6-3h-1.56l-2.09-3.23-.35.47-8.61-4.55.18-1.9c-1.88.66-1.6-3.18-4.09-1.64.34,1.41.67,2.81,1,4.29-2.65,1.45-5.29,3-8.05,4.36s-5.75,2.41-8.57,3.75a12,12,0,0,0-2.42,2l.85,2.28c-.35.59-.74,1.25-1.12,1.91l-.57-.17v-3c-3-1.06-3.91,1.52-5.34,3l-2.92-1.75c.18,1.14.29,1.89.4,2.63l-.42-.08c-.41.9-.83,1.8-1.47,3.17l-3.85-.79c-.08.61-.14,1.11-.21,1.67l-2.71-.43,3.24,3.77c-1.31,2.81-4.22-.19-5.87,2.2l3,1.1c1.23,1.32-.08,2.43-.29,3.67-.2,2.63-.4,5.27-.6,7.88-.67,1.69-1.36,3.43-2,5.17l.42,0,.62,2.92.28-.19,2.12,3.85,5.67,4.86.43,1.88,2.05-1.82c2.42-.67,4.64-3.62,3.56-4.86l-2-.39,1-2,2.7,1.09,8.54-3c.11-.21.43-.78.82-1.52l-1.85-.81-7.61,2.7-2.59-4.21L308,361c0-.82-.09-1.67-.14-2.64-3.34-2.94-2.11-9.8,2.86-12.85.43-2.68,2.72-3.39,4.86-4.35s4.26-2.14,6.39-3.22a33.68,33.68,0,0,1,18.52-.26l0-.64L339,335.3l-4.62-.56-1.26-2.92c-.66,1.32-1.15,2.3-1.65,3.28l-.78-.62L329.19,332l-1.79,2.62-3.54.66v-3.13l-.4-.06c-.29.62-.57,1.25-1,2.21-.43-1.66-.76-2.95-1.08-4.2a12,12,0,0,1,2.53-1.34c3-.74,6.21-2.13,9.16-1.8,5.91.65,11.14,3.47,15.94,7a120.61,120.61,0,0,1,14.08,12.53c.78.79,1.05,2.08,1.56,3.13l-.74.61c-3.15-1-4.3-4.79-7.75-5.88l-2.42.53,2.58,3.57-.46.35,2.77,3.71.79-.05c-.72,2.28-1.05,2-1.85,4.52C365.63,353,363.47,354.1,371,351.66Z" transform="translate(-292.25 -280.44)"/><path class="cls-1" d="M443.34,407.41c-.45-3.26-.8-6.54-1.27-9.79-.18-1.23-.57-2.43-1-4.15a46.82,46.82,0,0,0-2.41-6.78,74.42,74.42,0,0,0-6.55-11.12,83.81,83.81,0,0,0-9.43-10.07,29.67,29.67,0,0,0-7.07-4.92,63.14,63.14,0,0,0-10.91-4.31,82.24,82.24,0,0,0-13.58-2.79c-6.94-.75-13.69.7-20.3,2.83l-.55.14c-2.67,1.28-5.34,2.23-8,3.39a2.75,2.75,0,0,1-.52.45c-1.84,1.15-3.79,2.13-5.56,3.37a42.75,42.75,0,0,0-11,10.59c-3.12,4.56-6.43,9.12-8.62,14.13a57.76,57.76,0,0,0-4.36,17.92c-.71,7.74.72,15.07,2.6,22.42a21.08,21.08,0,0,0,1.34,4c2.92,6.18,6.12,12.22,10.94,17.16,3.9,4,6.53,9.29,11.76,11.95,3.93,2,7.8,4.33,12,5.59,7,2.14,14.38,1.69,21.61.9a57.25,57.25,0,0,0,27-9.92c3.74-2.62,6.83-6.21,10.14-9.44a21.25,21.25,0,0,0,3.06-3.75c1.63-2.55,3.18-5.15,4.58-7.83a69,69,0,0,0,3.11-7,35.52,35.52,0,0,0,1.11-4.23,12.94,12.94,0,0,0,.87-4.08C442.81,417.15,444,412.35,443.34,407.41Zm-39.7-25.77c-5.26-.11-10.46-.52-15.63-.25a34.49,34.49,0,0,0-15.44,4c-1-5.26-1.89-10-2.85-15.11a31.45,31.45,0,0,1,4.62-2.12,87.53,87.53,0,0,1,11.24-2.5,48.54,48.54,0,0,1,9.25.16c3.87.27,5.41,3.33,6.59,6.33a69.59,69.59,0,0,1,2.3,8.5A3,3,0,0,1,403.64,381.64ZM430.87,411a26.4,26.4,0,0,1-11.68,11.64,2.48,2.48,0,0,1-3.6-1.08c-1.49-2.38-2.77-4.88-4.27-7.25a41.7,41.7,0,0,0-4.13-5.71c-2.08-2.27-2.28-3.46-.81-5.7,3.12-4.74,6.07-9.58,9.17-14.34a23.82,23.82,0,0,1,2.63-2.82c2.4,2.69,4.48,4.85,6.36,7.17a63.33,63.33,0,0,1,4.85,6.78,24.35,24.35,0,0,1,2.26,5.42A7.63,7.63,0,0,1,430.87,411Z" transform="translate(-292.25 -280.44)"/><path class="cls-1" d="M421.91,501.72c17.55-3.74,32.89-11.81,46.68-23.15a53.28,53.28,0,0,0,5.37-4.15c5.09-5,10.5-9.78,14.27-16,.9-1.48,2.37-2.63,3.26-4.12,3.23-5.39,6.34-10.84,9.46-16.3a27.8,27.8,0,0,0,1.73-3.71c.55-1.46.9-3-.54-4.56-2,.29-4,.67-6.09.86a11.5,11.5,0,0,1-3.51-.21c-2-.43-2.31-1.95-1.81-3.6a11.2,11.2,0,0,1,1.7-3.36c2.93-4,5.36-8.48,10-10.89a9.59,9.59,0,0,1,4.95-1.36c4.24.38,8.81.34,12.12,6,4.35,4.61,5.56,11.79,6.13,19.21-.55,3.62-1.1,7.23-1.61,10.6-3.15,2.77-3.63,2.94-6.9,2.65-3.06-1.31-2.11-3.75-2.14-6a42.23,42.23,0,0,0-.89-7.84c-.39-1.93-1.83-2.32-2.71-1.86-3.71,6.74-6.82,12.85-10.38,18.68-3.13,5.13-6.76,9.94-10.18,14.9-.15.23-.29.55-.51.65-4.47,2.14-6.24,7-10,9.9-2.29,1.8-4,4.28-6.18,6.25a111.19,111.19,0,0,1-8.76,7.31c-3.61,2.66-7.37,5.14-11.19,7.48a61.14,61.14,0,0,1-6.25,2.88c-.57.26-1,.73-1.6,1-1.24.58-2.52,1.11-3.79,1.64-.38.17-.79.29-1.18.44-5.18,1.93-10.26,4.16-15.56,5.7a108.66,108.66,0,0,1-14.58,2.89c-5.27.78-10.58,1.4-15.89,1.65a94,94,0,0,1-11.09-.66c-2.09-.15-4.21-.25-6.27-.6-6.21-1.05-12.51-1.8-18.55-3.45a161.65,161.65,0,0,1-18.68-6.69c-5.39-2.21-10.59-4.91-15.84-7.47a34.79,34.79,0,0,1-3.71-2.47c-.48,1.11-1.11,1.92-1.12,2.73a8.85,8.85,0,0,0,2.63,6.47,43.79,43.79,0,0,1,3.94,4.86c.39.56.24,1.48.4,2.64l-6.51,1.93a16.74,16.74,0,0,1-7.2-6.38,30.47,30.47,0,0,0-3.68-4,4.49,4.49,0,0,1-1-1.1c-1.87-4.44-4.39-8.7-4.53-13.68a7.88,7.88,0,0,1,1.06-4.09,24,24,0,0,1,3.89-4.7c2.49-2.38,5.73-2.11,8.81-1.91,2.31.16,4.59.67,6.83,1l8.51,4.19c.49,2.14-.52,3.61-2.63,4.42a23.14,23.14,0,0,0-3.92,2c-.51.32-.76,1.05-1.26,1.79,1.41,1,2.56,1.89,3.82,2.61a99.2,99.2,0,0,0,24.09,10.07,161.2,161.2,0,0,0,19,4c5.37.69,10.89.29,16.34.36.5,0,1-.1,1.48-.07,10,.66,19.54-2.4,29.21-4.22a13.18,13.18,0,0,0,2.52-1" transform="translate(-292.25 -280.44)"/><path class="cls-1" d="M447,285.44l3.43-2.7,7.54,2.58.38-2.16c2.19-.77,4.54,2.09,7-.39l-2.87-1.33c2.27-1,3.36.5,4.76,1.19l1.93-.79,1.67,1.53,2.48-.45L470.81,281l.3-.57,5.09,2.18h3.68l1.79-.92,2.73.88-1.33,1.12h-2L481,284c2.38,1,4.7,2.24,7.16,3.05a9.35,9.35,0,0,1,6.06,6.18c1.15,3.29,2.67,5.36,5.58,6.48.37-3.67-4.15-4.12-4.94-7.18,2.63.47,8.21,7.16,8.73,10.18l1.32.54c-.12.7-.22,1.3-.32,1.91L505,305l7.69,13.82c0,.32-.14.86-.22,1.37l1.18,2.21c-2.17,0-2.1-1.34-2.07-2.3l-1.75-2.64-.12.17-5.05-4.73c-1.14-.11-1.87-1.32-1.77-3-.76-.82-1.47-1.51-2.09-2.27s-1-1.44-1.69-2.43l-1.7-.54-1.62-2.36H489.5l-6.72-4.4-.1.29-4.33-.63c-2.35,1.39-5.1.85-7.79-.36-3.41-1.51-7-1.56-10.58-1.23-1.85.17-3.63,1.06-5.44,1.62-.67.2-1.34.37-2.1.58l-1-1.63-1.92,1.31h-6.42l-.67-.54-4.51.41-.62-1.55-2.25,1.42-.5-.45,2.14-3.54-.35-.49a9.45,9.45,0,0,0-2,1.48,11.18,11.18,0,0,0-1.13,2.58l-1.85-.95c.12-1,.21-1.79.36-3.13l-2.39,1.88-.43-.14a10.11,10.11,0,0,1,.86-1.95,12.42,12.42,0,0,1,1.68-1.64l-.37-.48-2.61,1.48-.38-.34,1.83-3.52-.92-.5L424.17,297c-1.72-2.63,1-4,.71-6.23l-3.42,3.64c-.28-1.45-.47-2.43-.61-3.17l3.22-4.42,2.57.14,3.51-3.16,1.49.88,3.75-2,.57.86-3.9,3.45.23.42,4.52-1.86,1-2.08,3.19,1.85,6.14-2.41c-.05.66-.1,1.22-.22,2.57m30.77-.69-.28-.71-3-.23,1.8,2.55,1.5-1.61M493,294.56l.67-.44-1.54-2.22-.59.39,1.46,2.27" transform="translate(-292.25 -280.44)"/><path class="cls-1" d="M346.54,297.45l-.31,1.14,2.69,2.09.42-.34c-.28-.62-.55-1.25-.84-1.88,1.34-.11,5.31,4.08,5.49,5.85l-2.72.5-.81-3.23-2.21.75-1,1.94-2.56-2.8c-.13.81-.22,1.28-.31,1.84h-3l1.55,2.78-1.59-.11c.09,1.31.18,2.63.27,4.13l-2.29-.25c-.34.76-.67,1.5-1.19,2.64l-3.73,1.07-.21-.42-1,1.53c-2.44-1.42-3.15-1.32-4.68.56l-15.08.87-1.56,1.73-5.88.73-.9,1.48h-2.32c-.58.32-1.3.74-2.17,1.24l1.15,1.41-9.18,1.1c-.14-1.52-.25-2.62-.37-3.83l1.42-1.3-.89-1.82c.38-2.81.12-5.93,3.62-6.92.28-.69.49-1.2.71-1.76L310.56,298l.52.44-2.69,3.41c3.37-.45,5.64-2.24,8.23-3.58l.54-2.18,2.26-.87c.08-.9.17-1.79.25-2.72l2.39-1.26.46.26-1.74,3.74c2.55.24,1.87-2,2.71-3s1.4-2.35,2.43-3.52v2.8c-.76,1.78-1.36,3.2-2,4.62,4.3,1.79,4.3,1.79,5.61.71l-1.8-2.43,6.38,1.9-1.55-2.49.23-.28,3,2.16.06-.58,5.28-1.2v-.77l5.39,4.28m-4.44-.85-.79.67,1,1.22L343,298l-.93-1.38M339,299l.4-.82-1.64-.82-.36.64,1.6,1" transform="translate(-292.25 -280.44)"/><path class="cls-1" d="M441.13,321.31l3.27.34,1.88-1.18.53-2.51,2.19,1.42,2.83-3.19,2,1.39c0-1-.08-1.72-.13-2.93l-3.05.58-1.17-.83,3.91-2.1h3.35l3.43,1.09-.09.83-3.82.3,2.68,1.79h3.9l.64,2,.48.06.68-2.95-3-1.36v-2.31L468,313.5l1.27,1.69,2-2.21,3.55,2.81c0,.17.19.85.3,1.37l2.85,2.1c-.27,1.1-.47,1.91-.67,2.75l-1.92,1.09,2.26,2,1.09-1.77,4.52-1.19c.06.65.11,1.17.14,1.55l-2,1.29.27.71,3.86-.92.21.46-1.25,1.44c2.22,1.49,3.7-.92,5.52-1l.41.59-5.41,4.4,3.89,2.58-.17,1.9,1.87,1.7L488.25,338c-1.85,2.2-.24,4.63.33,7l-.64.25-3.09-2-.4.43c.49.58,1,1.17,1.65,2l-1.17,2-1.69-3.09-3.39,1-.46-.94,5.85-5.25L476.42,328l-1.5,1.34-1.29-2.74-3.2-2c-9.27-1.47-18.51-1.6-26.8,2.91l-3.79,3.17.19.22c-1.2,1.07-2.47,2.07-3.58,3.23-1.48,1.56-2.86,3.22-4.23,4.88a19.63,19.63,0,0,0-1.34,2.31c-.46-1.53-.73-2.41-1-3.36l1.12-2,2-.87-.79-1.72-.73-.35c-.35.78-.69,1.55-1,2.32l-.74-.42c.08-.8.15-1.61.24-2.6l-2.11-1.16,1.17-3.15,2.22-.65c.23-.92.49-1.91.81-3.17l1.33-1.44,1.79,1,1-2.85,2-.37-.22-.34,6.58-4.27c.23-.65.49-1.36.83-2.33l3,1.68c-1.78,1.24-3.4,2.26-4.89,3.45a21.46,21.46,0,0,0-2.32,2.52l-3,2.08,1.9,1,1-3.1m30.65-3.16.84.3.78-2-.83-.33c-.26.67-.53,1.33-.79,2M461.47,320l.46-.34c-.15-.44-.19-1-.49-1.26s-.75.17-1.71.43l1.74,1.17" transform="translate(-292.25 -280.44)"/><path class="cls-1" d="M453.71,355.3l-1.9-.7-2,2.12c-.52-1-.88-1.69-1.23-2.37l-3.15,1.52c-.73-.78-1.2-1.29-1.54-1.64l-4.51.67.13-.64c-2.3-.66-4.63-1.24-6.89-2-2.05-.68-4-1.54-6-2.4-.25-.11-.25-.77-.47-1.52,2.38.57,3.53,4.54,6.32,1.77a34.54,34.54,0,0,1,.89-4.78c1.23-3.78,3.83-6.29,7.87-6.65s6.5,2.1,8.71,5c1.9,2.5,2.05,5.41,1.8,8.69l4.94.25c-1.22,1.12-2,1.85-3,2.69M439,343.77l5.31-2.56-1.51-1.32-.42.55-3.49,1.18c0,.59.06,1.23.11,2.15m3.09,4.07h3.17l-1.27-3c-.74,1.17-1.14,1.81-1.9,3m-4.46,3.43.85-.22-.49-1.76-.71.19c.12.6.24,1.19.35,1.79" transform="translate(-292.25 -280.44)"/><path class="cls-1" d="M354.26,359.88c-3.69-.35-6.59,3.07-9.39,1.87-3.28.5-5.66,1-8.06,1.19-1.53.15-2.38-.8-2.88-2.26-1.79-5.18,2.09-10.1,7-12.89s11.55.22,13.31,4.61a10.41,10.41,0,0,1,0,7.48m-9.66-4.48-2-2.62-1.48,2.61.51.65,3-.64m-1-5.49H347c-2.19-2.13-2.75-2.13-3.34,0m4.15,1.28,2.31-1.68-2.31-.56Z" transform="translate(-292.25 -280.44)"/><path class="cls-1" d="M312.67,346.9c.5,4.35,1,8.6,1.56,13.42L309,358.07c-.72-4.27,1.08-9.74,3.68-11.17" transform="translate(-292.25 -280.44)"/><path class="cls-1" d="M421.15,285.67c1.41,1.42.15,2-.51,2.63a20.8,20.8,0,0,1-2.4,1.66c.49,1.07.8,1.76,1.18,2.61l-1.65.46c-.22.74-.45,1.51-.76,2.52-2-1.53-1.63-3.44-1.73-4.92l3.08-2.67-.34-.46,1.68.23,1.45-2.06" transform="translate(-292.25 -280.44)"/><path class="cls-1" d="M466,351.31l-.65,1.49-7.31.39c1.53-2,5.13-2.81,8-1.88" transform="translate(-292.25 -280.44)"/><path class="cls-1" d="M341.92,337.5l2.49-1,.37,1.66c2.65.23,4.57,1.42,4.68,3.34-2.37-1.73-5.35-1.67-7.54-4" transform="translate(-292.25 -280.44)"/><path class="cls-1" d="M354.41,295.15l1.44,2.19L354,301.08c-1.58-2.93-1.4-5.09.42-5.93" transform="translate(-292.25 -280.44)"/><path class="cls-1" d="M324.49,366.11c.24-.71.49-1.42.79-2.29l3.52.4.1.58-4,1.91-.39-.6" transform="translate(-292.25 -280.44)"/></svg>