<svg id="Calque_1" data-name="Calque 1" xmlns="http://www.w3.org/2000/svg" viewBox="0 0 427.1 428.94"><defs><style>.cls-1{fill:#f2f2f2;}</style></defs><path class="cls-1" d="M363.37,277.19A117.17,117.17,0,1,0,480.54,394.36,117.17,117.17,0,0,0,363.37,277.19Zm-14.86,58.93a10,10,0,0,1-3.6-1.24c-2.51-1.23-3-3-4-4.18.48-7.45-1.29-13.38,3.27-17.31,11.16-9.62,46.07-13.81,58.61-6.09,4.88,3,8.15,21.45,8.15,21.45C391.25,324.85,358.75,336.42,348.51,336.12Zm88.74,58.57h0l-4,.73s-.06,0-.07,0c-2-8.58-11-21.58-15-29.55-.34-.7-3.33-7.84-1.91-9.54a18.08,18.08,0,0,1,7.88-5.42c6.3-2.21,11.28-4.33,15.67-3.26,13,3.18,23.17,24.87,19.28,33.78C456.62,387.25,437.62,394.55,437.25,394.69Z" transform="translate(-186.45 -144.6)"/><path class="cls-1" d="M328.37,272.89c4.88-16.63,1.64-23.1-1.48-40.26l-6.17-1c.09,1.59.15,2.54.21,3.49l-1,.56-5.38-6c-2.83.83-2.34,2.26-1.22,4.25,2.83,5,5.66,10.09,8.06,15.33.81,1.77.35,4.13.47,6.37l-2.74,1c-5.72-3.48-4.59-11.18-10.8-14.13l-1.3-3.35-4.86,1.45c.48-2.27.8-3.81,1.17-5.58l-3.2-.28-6.48-5.41h-2.82l-3.76-5.81-.63.85L271,216.12c.12-1.35.2-2.2.31-3.42-3.38,1.2-2.87-5.72-7.37-2.94.61,2.54,1.22,5.05,1.86,7.72-4.77,2.6-9.53,5.44-14.5,7.85s-10.36,4.34-15.43,6.75c-1.69.81-3,2.46-4.36,3.66l1.53,4.11-2,3.44-1-.3v-5.45c-5.39-1.89-7,2.75-9.61,5.37l-5.26-3.14c.31,2,.51,3.39.72,4.73l-.76-.15-2.64,5.72-6.95-1.43c-.14,1.1-.25,2-.38,3l-4.87-.78,5.83,6.79c-2.36,5.07-7.6-.34-10.57,4l5.46,2c2.21,2.39-.14,4.39-.52,6.61-.36,4.75-.72,9.5-1.08,14.19l-3.69,9.32.77.08,1.11,5.25.5-.34c1.1,2,2.19,4,3.83,6.93l10.2,8.76c.17.73.38,1.64.78,3.39l3.69-3.29c4.37-1.2,8.37-6.51,6.42-8.74l-3.63-.71,1.85-3.64,4.85,2,15.39-5.46c.2-.38.77-1.41,1.48-2.73l-3.34-1.47-13.7,4.87c-1.51-2.45-3-4.94-4.67-7.58l-6.39-1.35c-.08-1.47-.16-3-.26-4.74-6-5.31-3.79-17.66,5.16-23.15.77-4.84,4.89-6.1,8.75-7.84s7.68-3.86,11.51-5.81c11-3.06,22.09-3.61,33.37-.45l.06-1.15c-1-1.12-2-2.23-2.76-3.11l-8.31-1L260,237.16l-3,5.9-1.4-1.12c-.75-1.26-1.49-2.52-2.67-4.53-1.32,2-2.36,3.46-3.22,4.72l-6.38,1.2v-5.64l-.73-.11c-.51,1.12-1,2.25-1.8,4l-2-7.56c1.71-.94,3-2.06,4.56-2.43,5.48-1.32,11.18-3.83,16.51-3.24,10.64,1.17,20.06,6.25,28.7,12.65a215,215,0,0,1,25.37,22.57c1.4,1.43,1.89,3.74,2.8,5.64l-1.32,1.09c-5.69-1.77-7.75-8.63-14-10.59l-4.35,1,4.65,6.43c-.28.21-.56.42-.83.64l5,6.67,1.42-.09c-1.3,4.11-1.89,3.58-3.33,8.14C318.63,275.22,314.75,277.29,328.37,272.89Z" transform="translate(-186.45 -144.6)"/><path class="cls-1" d="M426.8,549.13c31.61-6.73,59.25-21.28,84.09-41.7,3.24-2.47,6.78-4.64,9.66-7.47,9.18-9,18.91-17.62,25.7-28.82,1.63-2.68,4.27-4.74,5.88-7.43,5.82-9.7,11.43-19.53,17-29.35a47.39,47.39,0,0,0,3.12-6.7c1-2.63,1.62-5.35-1-8.21-3.55.52-7.25,1.21-11,1.56a20.89,20.89,0,0,1-6.31-.38c-3.55-.78-4.17-3.53-3.26-6.5a20.39,20.39,0,0,1,3.05-6.05c5.28-7.17,9.66-15.27,17.95-19.61,2.69-1.41,6-2.71,8.92-2.45,7.63.69,15.86.6,21.82,10.77,7.84,8.3,10,21.24,11,34.61-1,6.51-2,13-2.9,19.09-5.67,5-6.54,5.3-12.42,4.78-5.52-2.36-3.8-6.76-3.86-10.88a77.33,77.33,0,0,0-1.59-14.14c-.71-3.46-3.3-4.17-4.88-3.34-6.7,12.14-12.3,23.14-18.71,33.65-5.64,9.23-12.18,17.91-18.33,26.84-.29.41-.53,1-.93,1.18-8,3.85-11.24,12.55-17.94,17.82-4.12,3.24-7.22,7.72-11.12,11.27a202.48,202.48,0,0,1-15.8,13.16c-6.5,4.79-13.26,9.25-20.15,13.48-3.49,2.14-7.51,3.43-11.26,5.17-1,.48-1.85,1.33-2.87,1.81-2.24,1.06-4.54,2-6.83,3-.69.29-1.42.51-2.13.77-9.32,3.48-18.49,7.51-28,10.28a197.62,197.62,0,0,1-26.28,5.2,286.41,286.41,0,0,1-28.62,3c-6.62.31-13.31-.7-20-1.19-3.77-.27-7.58-.44-11.3-1.07-11.18-1.89-22.53-3.25-33.42-6.22-11.46-3.13-22.63-7.53-33.64-12-9.72-4-19.07-8.84-28.52-13.45-2.12-1-4-2.61-6.69-4.45-.86,2-2,3.45-2,4.92a16,16,0,0,0,4.74,11.64,76.86,76.86,0,0,1,7.1,8.77c.7,1,.44,2.66.72,4.75l-11.73,3.47a29.92,29.92,0,0,1-13-11.49c-1.74-2.73-4.4-4.88-6.63-7.29a8.3,8.3,0,0,1-1.74-2c-3.37-8-7.9-15.67-8.14-24.64a14.18,14.18,0,0,1,1.9-7.37,42.58,42.58,0,0,1,7-8.46c4.48-4.29,10.31-3.81,15.87-3.44,4.15.28,8.26,1.2,12.3,1.81l15.33,7.55c.88,3.86-.94,6.51-4.75,8a42.26,42.26,0,0,0-7.05,3.54c-.92.56-1.37,1.88-2.27,3.22,2.54,1.75,4.6,3.41,6.88,4.7,13.75,7.73,28.07,14.24,43.4,18.14,11.29,2.87,22.69,5.72,34.22,7.21,9.68,1.25,19.62.51,29.44.64.89,0,1.78-.18,2.67-.12,18.07,1.19,35.18-4.32,52.6-7.6a24.92,24.92,0,0,0,4.55-1.84" transform="translate(-186.45 -144.6)"/><path class="cls-1" d="M465.14,153.6l6.18-4.87,13.58,4.65c.36-2.06.53-3,.68-3.89,3.94-1.38,8.19,3.78,12.58-.69L493,146.41c4.09-1.74,6,.89,8.59,2.13l3.46-1.41,3,2.74,4.48-.8-4.42-3.44c.18-.34.36-.69.55-1l9.16,3.92h6.62l3.23-1.65,4.92,1.59-2.4,2h-3.65l-.1.47c4.29,1.86,8.48,4,12.9,5.49,5.7,1.88,9.08,5.9,10.91,11.14,2.08,5.92,4.82,9.64,10,11.67.68-6.62-7.47-7.42-8.88-12.93,4.74.83,14.78,12.9,15.73,18.34l2.37,1c-.21,1.26-.4,2.35-.59,3.44l.7-.27,13.84,24.9c-.09.58-.24,1.55-.39,2.47l2.12,4c-3.9-.07-3.77-2.43-3.72-4.16l-3.15-4.74-.23.3L569,203c-2.06-.19-3.38-2.37-3.2-5.44-1.37-1.47-2.64-2.71-3.75-4.07s-1.83-2.61-3-4.39l-3.06-1L553,183.89H541.77L529.65,176c0,.17-.11.34-.17.51l-7.8-1.13c-4.23,2.52-9.19,1.53-14-.63-6.13-2.74-12.61-2.81-19-2.23-3.33.3-6.54,1.91-9.82,2.92-1.2.36-2.41.67-3.77,1-.59-1-1.08-1.82-1.74-2.95l-3.47,2.37H458.24l-1.22-1-8.12.74-1.11-2.8-4.05,2.57-.9-.82,3.85-6.37-.62-.88c-1.26.87-2.78,1.52-3.69,2.65s-1.28,2.83-2,4.66L437,172.94c.21-1.78.37-3.23.65-5.64l-4.3,3.38-.79-.25a17.78,17.78,0,0,1,1.57-3.52,22.72,22.72,0,0,1,3-2.95l-.67-.85-4.69,2.65-.69-.61,3.3-6.35-1.66-.89-8.66,16.44c-3.09-4.75,1.86-7.15,1.28-11.23-2.22,2.37-4,4.21-6.16,6.54-.51-2.61-.85-4.36-1.1-5.7l5.79-8,4.63.25,6.33-5.7,2.68,1.59,6.76-3.58,1,1.54-7,6.21.42.77,8.13-3.35,1.88-3.75,5.74,3.33L465.54,149c-.11,1.19-.19,2.2-.4,4.62m55.42-1.24c-.16-.43-.33-.85-.5-1.27l-5.45-.41c1.27,1.78,2.11,3,3.25,4.59l2.7-2.91M548,170l1.19-.79-2.76-4-1.07.7L548,170" transform="translate(-186.45 -144.6)"/><path class="cls-1" d="M284.24,175.24c-.07.27-.29,1.07-.55,2l4.85,3.77.76-.61c-.51-1.12-1-2.25-1.52-3.39,2.41-.21,9.56,7.35,9.88,10.55l-4.88.88c-.45-1.79-.91-3.61-1.47-5.81l-4,1.36c-.59,1.14-1.08,2.11-1.79,3.49l-4.6-5.05c-.25,1.46-.4,2.31-.57,3.31H275c1,1.85,1.82,3.27,2.8,5l-2.87-.2c.16,2.37.32,4.75.49,7.44l-4.14-.44-2.13,4.75-6.72,1.92-.37-.74-1.74,2.75c-4.39-2.55-5.67-2.38-8.43,1l-27.17,1.56-2.8,3.13-10.59,1.3-1.62,2.66h-4.19l-3.91,2.24,2.08,2.54-16.53,2c-.27-2.74-.46-4.72-.68-6.91l2.56-2.34-1.6-3.28c.67-5.05.22-10.68,6.52-12.47.5-1.22.88-2.16,1.28-3.17l24.22-18.29.94.8-4.85,6.13c6.08-.8,10.17-4,14.84-6.45.29-1.18.62-2.5,1-3.91l4.07-1.59c.15-1.61.3-3.21.46-4.89l4.31-2.28.83.47c-1,2.17-2,4.34-3.15,6.76,4.6.42,3.38-3.67,4.89-5.41s2.51-4.23,4.37-6.35v5l-3.52,8.33c7.74,3.23,7.74,3.23,10.1,1.29l-3.24-4.39,11.48,3.41c-1.36-2.19-2.07-3.34-2.79-4.48l.43-.5,5.36,3.89.11-1.05,9.51-2.15v-1.39l9.7,7.71m-8-1.52-1.42,1.19,1.81,2.2,1.29-.92-1.68-2.47M270.73,178l.73-1.49-2.95-1.47-.65,1.15,2.87,1.81" transform="translate(-186.45 -144.6)"/><path class="cls-1" d="M454.63,218.22l5.9.6,3.38-2.12c.26-1.24.57-2.69.95-4.52l3.95,2.56,5.11-5.74,3.58,2.51c-.08-1.8-.14-3.1-.24-5.29l-5.49,1-2.12-1.49L476.7,202h6l6.18,2c-.06.49-.12,1-.17,1.49l-6.88.54,4.82,3.22h7c.42,1.33.78,2.48,1.15,3.62l.87.11c.36-1.56.72-3.12,1.22-5.32l-5.38-2.45V201L503,204.14l2.29,3.05,3.61-4,6.41,5.06c.06.31.33,1.52.53,2.47l5.13,3.78c-.48,2-.83,3.43-1.2,4.94l-3.47,2,4.08,3.58,2-3.2,8.14-2.14c.11,1.18.2,2.11.27,2.8l-3.69,2.33c.16.42.32.85.49,1.28l6.95-1.66.38.81-2.25,2.61c4,2.68,6.66-1.66,9.94-1.84l.74,1.06L533.61,235l7,4.66c-.09,1-.19,2.19-.3,3.42l3.36,3.06-4.16,2.07c-3.33,4-.43,8.34.6,12.67l-1.15.45-5.56-3.59-.73.77c.88,1.06,1.76,2.11,3,3.58-.5.85-1.1,1.85-2.11,3.53-1.38-2.52-2.3-4.21-3-5.55l-6.11,1.73-.83-1.69,10.53-9.44L518.2,230.34l-2.7,2.41-2.33-4.92-5.75-3.56c-16.71-2.65-33.35-2.88-48.28,5.24l-6.83,5.72.35.39c-2.16,1.93-4.46,3.73-6.45,5.82-2.67,2.81-5.15,5.8-7.62,8.79a35.29,35.29,0,0,0-2.42,4.17c-.83-2.76-1.31-4.35-1.83-6.06.69-1.23,1.36-2.44,2-3.59l3.67-1.57c-.52-1.13-1-2.11-1.41-3.1l-1.32-.61q-.93,2.09-1.88,4.17l-1.32-.75c.13-1.45.27-2.91.43-4.69l-3.8-2.09,2.1-5.68,4-1.18c.43-1.64.89-3.43,1.48-5.69l2.38-2.61,3.23,1.88c.65-1.84,1.2-3.42,1.81-5.14l3.68-.66c-.13-.21-.26-.41-.38-.62l11.85-7.68c.41-1.18.87-2.46,1.48-4.2l5.37,3c-3.2,2.24-6.13,4.07-8.81,6.21a39.08,39.08,0,0,0-4.17,4.53l-5.34,3.75,3.43,1.76c.67-2.05,1.24-3.82,1.81-5.59m55.22-5.7,1.52.55c.46-1.19.93-2.37,1.4-3.56l-1.5-.58c-.47,1.2-.95,2.4-1.42,3.59m-18.58,3.37.83-.61c-.27-.78-.35-1.77-.88-2.26-.29-.27-1.36.31-3.09.77l3.14,2.1" transform="translate(-186.45 -144.6)"/><path class="cls-1" d="M477.29,279.46l-3.42-1.28c-1.17,1.26-2.23,2.38-3.58,3.82-.93-1.78-1.59-3-2.22-4.26l-5.68,2.73c-1.31-1.4-2.16-2.32-2.76-3l-8.13,1.2.24-1.15c-4.15-1.19-8.34-2.23-12.42-3.6-3.69-1.23-7.28-2.76-10.84-4.33-.44-.19-.45-1.38-.84-2.72,4.29,1,6.35,8.17,11.38,3.17.52-2.92.7-5.88,1.59-8.6,2.23-6.81,6.9-11.33,14.19-12,7.07-.63,11.71,3.8,15.68,9,3.43,4.5,3.7,9.75,3.24,15.66l8.92.44c-2.22,2-3.68,3.33-5.35,4.86m-26.45-20.78,9.57-4.61-2.71-2.39-.77,1-6.28,2.11c.06,1.07.11,2.22.19,3.88m5.57,7.32h5.72c-.8-1.91-1.35-3.21-2.28-5.45-1.33,2.11-2.05,3.26-3.44,5.45m-8,6.18,1.52-.39-.87-3.17-1.28.34.63,3.22" transform="translate(-186.45 -144.6)"/><path class="cls-1" d="M298.15,287.7c-6.64-.64-11.87,5.53-16.91,3.36-5.91.9-10.19,1.73-14.52,2.15-2.75.28-4.28-1.45-5.19-4.07-3.22-9.34,3.76-18.19,12.61-23.23,9.12-5.19,20.8.4,24,8.31,1.74,4.34,1.62,8.58,0,13.48m-17.4-8.07-3.66-4.73-2.66,4.71.93,1.16,5.39-1.14M279,269.74h6c-3.94-3.84-4.95-3.85-6,0m7.47,2.29,4.17-3-4.17-1Z" transform="translate(-186.45 -144.6)"/><path class="cls-1" d="M223.23,264.32c.91,7.84,1.8,15.48,2.81,24.16l-9.43-4c-1.29-7.71,1.94-17.55,6.62-20.13" transform="translate(-186.45 -144.6)"/><path class="cls-1" d="M418.64,154c2.55,2.56.28,3.65-.92,4.74a36.14,36.14,0,0,1-4.31,3c.87,1.94,1.43,3.17,2.11,4.7l-3,.84c-.39,1.32-.81,2.71-1.36,4.53-3.59-2.75-2.94-6.19-3.11-8.86l5.54-4.81-.61-.82,3,.42c.76-1.1,1.54-2.21,2.6-3.72" transform="translate(-186.45 -144.6)"/><path class="cls-1" d="M499.37,272.26,498.21,275l-13.17.69c2.76-3.64,9.25-5.06,14.33-3.38" transform="translate(-186.45 -144.6)"/><path class="cls-1" d="M275.93,247.39l4.48-1.73c.23,1.05.46,2,.67,3,4.78.42,8.23,2.55,8.42,6-4.26-3.11-9.63-3-13.57-7.27" transform="translate(-186.45 -144.6)"/><path class="cls-1" d="M298.43,171.09,301,175c-1.11,2.24-2.14,4.31-3.35,6.73-2.83-5.27-2.51-9.16.77-10.68" transform="translate(-186.45 -144.6)"/><path class="cls-1" d="M244.53,298.93,246,294.8l6.35.71c0,.35.11.7.17,1.05L245.22,300l-.69-1.07" transform="translate(-186.45 -144.6)"/></svg>