<svg id="Calque_1" data-name="Calque 1" xmlns="http://www.w3.org/2000/svg" xmlns:xlink="http://www.w3.org/1999/xlink" viewBox="0 0 774 167.63"><defs><style>.cls-1,.cls-49{fill:none;}.cls-2{clip-path:url(#clip-path);}.cls-3{fill:#cc1517;}.cls-10,.cls-11,.cls-13,.cls-3,.cls-4,.cls-5,.cls-6,.cls-8{fill-rule:evenodd;}.cls-4{fill:#2764ae;}.cls-5{fill:#232856;}.cls-6{fill:#fff;}.cls-7{clip-path:url(#clip-path-2);}.cls-8{fill:#f49819;}.cls-9{clip-path:url(#clip-path-3);}.cls-10{fill:#263576;}.cls-11{fill:#ed992e;}.cls-12{clip-path:url(#clip-path-4);}.cls-13{fill:#246fb6;}.cls-14{fill:#5f6267;}.cls-15{fill:#e94235;}.cls-16{fill:#34a753;}.cls-17{fill:#4384f3;}.cls-18{fill:#fbbb03;}.cls-19{fill:#317df3;}.cls-20{fill:#55575e;}.cls-21{fill:#55585d;}.cls-22{fill:#3980f3;}.cls-23{fill:#56585b;}.cls-24{fill:#7c7d81;}.cls-25{fill:#377ff4;}.cls-26{fill:#575a5e;}.cls-27{fill:#21a349;}.cls-28{fill:#e73425;}.cls-29{fill:#5e6065;}.cls-30{fill:#525557;}.cls-31{fill:#595c60;}.cls-32{fill:#595c61;}.cls-33{fill:#585b5f;}.cls-34{fill:#595b5e;}.cls-35{fill:#595b5f;}.cls-36{fill:#357dee;}.cls-37{fill:#e83825;}.cls-38{fill:#5c5e62;}.cls-39{fill:#56585e;}.cls-40{fill:#5c5e63;}.cls-41{fill:#54555b;}.cls-42{fill:#595b61;}.cls-43{font-size:38.07px;font-family:MyriadPro-Regular, Myriad Pro;}.cls-44{letter-spacing:-0.03em;}.cls-45{letter-spacing:0em;}.cls-46{letter-spacing:0em;}.cls-47{letter-spacing:-0.01em;}.cls-48{letter-spacing:0em;}.cls-49{stroke:#000;stroke-miterlimit:10;stroke-width:4px;}</style><clipPath id="clip-path" transform="translate(-6 -2.33)"><rect id="SVGID" class="cls-1" x="197.39" y="59.15" width="129.15" height="77.49"/></clipPath><clipPath id="clip-path-2" transform="translate(-6 -2.33)"><rect id="SVGID-2" data-name="SVGID" class="cls-1" x="102.83" y="57.72" width="131.73" height="79.04"/></clipPath><clipPath id="clip-path-3" transform="translate(-6 -2.33)"><rect id="SVGID-3" data-name="SVGID" class="cls-1" x="7" y="60.8" width="129.15" height="77.49"/></clipPath><clipPath id="clip-path-4" transform="translate(-6 -2.33)"><rect id="SVGID-4" data-name="SVGID" class="cls-1" x="289.85" y="59.67" width="129.15" height="77.49"/></clipPath></defs><g class="cls-2"><path class="cls-3" d="M305.43,97.87A25.75,25.75,0,1,1,279.68,72a25.75,25.75,0,0,1,25.75,25.85h0" transform="translate(-6 -2.33)"/><path class="cls-4" d="M259.78,114.29a26.57,26.57,0,0,1-2-2.73H267a25.82,25.82,0,0,0,1.48-2.74H256.34a24.8,24.8,0,0,1-1.09-2.74h14.27a26.16,26.16,0,0,0,.75-13.68H254.51a25.62,25.62,0,0,1,.75-2.73h14.26a24,24,0,0,0-1.09-2.74H256.34a25.9,25.9,0,0,1,1.49-2.74H267a27.71,27.71,0,0,0-2-2.73h-5.2a25,25,0,0,1,2.6-2.75,25.91,25.91,0,1,0,2.6,35.58h-5.21" transform="translate(-6 -2.33)"/><path class="cls-5" d="M260.3,98.5c0-.23.36-1.88-1.49-1.91-1,0-1.75.68-2.05,1.91Zm1.72,6.36a12.59,12.59,0,0,1-3.29.43c-3.59,0-5.46-1.64-5.46-4.78,0-3.66,2.38-6.36,5.61-6.36,2.64,0,4.33,1.51,4.33,3.88a9.73,9.73,0,0,1-.39,2.63h-6.39c-.22,1.54.89,2.21,2.79,2.21a8.49,8.49,0,0,0,3.3-.66Z" transform="translate(-6 -2.33)"/><path class="cls-5" d="M264.18,97.78c0,1.35.76,2.29,2.49,3,1.32.54,1.53.7,1.53,1.18,0,.67-.59,1-1.88,1a10.6,10.6,0,0,1-2.91-.41L263,105a18.35,18.35,0,0,0,3.39.31c3.45,0,5-1.13,5-3.58a3,3,0,0,0-2.3-3c-1.37-.55-1.53-.67-1.53-1.17s.54-.87,1.6-.87a18.56,18.56,0,0,1,2.35.16l.46-2.49a27.49,27.49,0,0,0-2.88-.21c-3.65,0-4.91,1.65-4.9,3.63" transform="translate(-6 -2.33)"/><path class="cls-5" d="M249.17,100.33a5.53,5.53,0,0,0-.71,0c-1.83,0-2.76.54-2.76,1.62a1.06,1.06,0,0,0,1,1.11h.17a2.47,2.47,0,0,0,2.31-2.62Zm2.36,4.78h-2.69l.07-1.13a4.3,4.3,0,0,1-3.38,1.31,2.8,2.8,0,0,1-2.94-2.65,1.22,1.22,0,0,1,0-.27c0-2.63,2.08-4.14,5.65-4.14a11.71,11.71,0,0,1,1.32.09,2.4,2.4,0,0,0,.13-.7c0-.71-.56-1-2.07-1a12.32,12.32,0,0,0-3.41.48l.46-2.41a14.28,14.28,0,0,1,3.85-.56c2.77,0,4.23,1.09,4.23,3.13a12.65,12.65,0,0,1-.26,2.13c-.12.7-.89,4.75-1,5.7Z" transform="translate(-6 -2.33)"/><path class="cls-5" d="M277,104.94a8.17,8.17,0,0,1-2.3.35c-1.64,0-2.54-.84-2.54-2.34a22.65,22.65,0,0,1,.44-2.84c.09-.53,1.51-8.28,1.51-8.28h3.19l-.48,2.56h1.63L278,97h-1.64s-.91,4.54-.91,4.89c0,.55.33.79,1.1.79a3.11,3.11,0,0,0,.86-.1L277,105" transform="translate(-6 -2.33)"/><path class="cls-5" d="M290.32,102.69c-1.13,0-1.82-.94-1.82-2.37,0-1.7,1-3.62,2.62-3.62,1.3,0,1.75,1,1.75,2.14C292.87,101.26,291.88,102.69,290.32,102.69Zm.94-8.54A6,6,0,0,0,286,96.73l.92-2.39c-1.7-.63-2.79.26-3.78,1.53,0,0-.16.21-.33.4V94.39h-3c-.41,3.32-1.12,6.68-1.68,10l-.13.72h3.22c.31-1.68.56-3,.81-4.14.68-3,1.83-3.91,3.56-3.51a7,7,0,0,0-.62,3c0,2.68,1.45,4.87,5,4.87s6.26-1.94,6.26-6.38a4.59,4.59,0,0,0-4.4-4.78,4.85,4.85,0,0,0-.66,0Z" transform="translate(-6 -2.33)"/><polyline class="cls-5" points="235.09 102.79 231.88 102.79 233.78 92.71 229.4 102.79 226.48 102.79 225.94 92.77 224.03 102.79 221.12 102.79 223.6 89.68 228.61 89.68 229.03 96.99 232.2 89.68 237.61 89.68 235.09 102.79"/><path class="cls-6" d="M261.11,97.69c0-.23.35-1.88-1.49-1.91a2.13,2.13,0,0,0-2.05,1.91Zm1.71,6.36a12.11,12.11,0,0,1-3.28.43c-3.6,0-5.46-1.64-5.46-4.78,0-3.66,2.37-6.36,5.6-6.36,2.65,0,4.34,1.51,4.34,3.88a10.73,10.73,0,0,1-.39,2.64h-6.39c-.23,1.53.88,2.2,2.78,2.2a8.54,8.54,0,0,0,3.31-.66Z" transform="translate(-6 -2.33)"/><path class="cls-6" d="M265,97c0,1.36.76,2.29,2.48,3,1.32.54,1.53.7,1.53,1.18,0,.68-.58,1-1.88,1a10.53,10.53,0,0,1-2.9-.41l-.47,2.47a18.43,18.43,0,0,0,3.39.31c3.45,0,5-1.13,5-3.58a3,3,0,0,0-2.3-3c-1.37-.55-1.53-.67-1.53-1.16s.54-.88,1.6-.88a20.46,20.46,0,0,1,2.35.16l.47-2.49a27.89,27.89,0,0,0-2.88-.21C266.24,93.34,265,95,265,97" transform="translate(-6 -2.33)"/><path class="cls-6" d="M250,99.52c-.24,0-.48,0-.72,0-1.83,0-2.76.55-2.76,1.62a1.07,1.07,0,0,0,1,1.11h.17A2.47,2.47,0,0,0,250,99.58Zm2.35,4.78h-2.68l.06-1.12a4.31,4.31,0,0,1-3.38,1.3,2.8,2.8,0,0,1-2.94-2.64v-.28c0-2.62,2.08-4.14,5.66-4.14.44,0,.88,0,1.31.09a2.4,2.4,0,0,0,.13-.7c0-.71-.56-1-2.06-1a12.34,12.34,0,0,0-3.42.48l.46-2.41a14.28,14.28,0,0,1,3.85-.56c2.77,0,4.23,1.09,4.23,3.13a11.7,11.7,0,0,1-.26,2.13c-.11.7-.89,4.75-1,5.71Z" transform="translate(-6 -2.33)"/><path class="cls-6" d="M277.83,104.14a8.61,8.61,0,0,1-2.31.34c-1.64,0-2.53-.84-2.53-2.34a20.72,20.72,0,0,1,.44-2.84c.09-.53,1.51-8.28,1.51-8.28h3.18l-.48,2.56h1.64l-.45,2.62h-1.64s-.9,4.54-.9,4.89c0,.55.33.79,1.09.79a3.63,3.63,0,0,0,.87-.1l-.43,2.35" transform="translate(-6 -2.33)"/><path class="cls-6" d="M297.11,98.1a4.58,4.58,0,0,0-5-4.76,5.92,5.92,0,0,0-6.26,5.54,6.09,6.09,0,0,0,0,.74c0,2.67,1.44,4.86,5,4.86S297.11,102.54,297.11,98.1ZM293.67,98c0,2.42-1,3.85-2.54,3.85-1.14,0-1.83-.94-1.83-2.37,0-1.7,1-3.62,2.62-3.62C293.23,95.89,293.67,96.93,293.67,98Z" transform="translate(-6 -2.33)"/><path class="cls-6" d="M280.66,93.58c-.4,3.32-1.12,6.68-1.68,10l-.12.73h3.21c1.17-6.42,1.55-8.25,4-7.61l1.17-3c-1.69-.63-2.78.27-3.77,1.53a8,8,0,0,0,.22-1.62h-3" transform="translate(-6 -2.33)"/><polyline class="cls-6" points="235.89 101.98 232.68 101.98 234.59 91.91 230.2 101.98 227.28 101.98 226.75 91.96 224.83 101.98 221.93 101.98 224.4 88.87 229.41 88.87 229.68 96.99 233.2 88.87 238.42 88.87 235.89 101.98"/></g><g class="cls-7"><path class="cls-3" d="M176.77,97.88a25.71,25.71,0,1,1-25.71-25.71,25.71,25.71,0,0,1,25.71,25.71h0" transform="translate(-6 -2.33)"/><path class="cls-8" d="M185.58,72.17a25.62,25.62,0,0,0-17.26,6.66,24.65,24.65,0,0,0-2.59,2.72h5.19a26.44,26.44,0,0,1,2,2.72h-9.12A28.63,28.63,0,0,0,162.28,87h12.08a25.29,25.29,0,0,1,1.09,2.72H161.19a26.28,26.28,0,0,0-.75,2.73h15.75a25.8,25.8,0,0,1-.74,13.61H161.19a25.29,25.29,0,0,0,1.09,2.72h12.08a25.53,25.53,0,0,1-1.48,2.72h-9.12a26.44,26.44,0,0,0,2,2.72h5.2a25.71,25.71,0,0,1-2.6,2.72,25.71,25.71,0,1,0,17.26-44.76" transform="translate(-6 -2.33)"/><path class="cls-5" d="M147.09,105.42h-2.31l.05-1.1a3.5,3.5,0,0,1-2.92,1.28,2.61,2.61,0,0,1-2.57-2.65,2.29,2.29,0,0,1,0-.25c0-2.58,1.8-4.08,4.9-4.08a8.47,8.47,0,0,1,1.13.08,2.26,2.26,0,0,0,.11-.69c0-.7-.48-1-1.79-1a9.25,9.25,0,0,0-3,.48l.39-2.39a11.09,11.09,0,0,1,3.34-.56c2.39,0,3.66,1.08,3.66,3.11a13.62,13.62,0,0,1-.23,2.11C147.68,101.32,147.16,104.62,147.09,105.42Zm-2-4.73c-.2,0-.41,0-.62,0-1.58,0-2.38.54-2.38,1.62a1,1,0,0,0,.86,1.07h.14c1.14,0,1.95-1.08,2-2.65Z" transform="translate(-6 -2.33)"/><polyline class="cls-5" points="132.19 103.09 129.4 103.09 131 93.07 127.43 103.09 125.52 103.09 125.29 93.13 123.61 103.09 121 103.09 123.18 90.05 127.19 90.05 127.43 97.35 129.88 90.05 134.35 90.05 132.19 103.09"/><path class="cls-5" d="M191.06,105.42h-2.32l.06-1.1a3.5,3.5,0,0,1-2.93,1.28,2.6,2.6,0,0,1-2.56-2.64,2.26,2.26,0,0,1,0-.26c0-2.58,1.81-4.08,4.9-4.08a8.74,8.74,0,0,1,1.14.08,2.62,2.62,0,0,0,.11-.69c0-.7-.49-1-1.79-1a9.32,9.32,0,0,0-3,.48l.4-2.39a10.83,10.83,0,0,1,3.34-.56c2.39,0,3.66,1.07,3.66,3.11a13.48,13.48,0,0,1-.22,2.1C191.65,101.32,191.13,104.62,191.06,105.42Zm-2-4.73c-.21,0-.42,0-.63,0-1.58,0-2.38.54-2.38,1.62a1,1,0,0,0,.86,1.07H187C188.16,103.34,189,102.26,189,100.69Z" transform="translate(-6 -2.33)"/><path class="cls-5" d="M159.49,105.26a6.18,6.18,0,0,1-2,.34,2,2,0,0,1-2.22-1.85,2.57,2.57,0,0,1,0-.48,24.21,24.21,0,0,1,.39-2.82c.16-1,1.21-7.24,1.21-7.24h2.77l-.32,1.6H161l-.38,2.55h-1.68c-.32,2-.78,4.53-.79,4.86,0,.55.29.8,1,.8a2.39,2.39,0,0,0,.75-.11l-.37,2.35" transform="translate(-6 -2.33)"/><path class="cls-5" d="M166.44,98.89c0-.23.29-1.9-1.29-1.9-.88,0-1.52.68-1.77,1.9Zm1.56,6.28a9.16,9.16,0,0,1-2.85.43c-3.1,0-4.72-1.62-4.72-4.73,0-3.62,2.06-6.29,4.85-6.29A3.54,3.54,0,0,1,169,97.9a2.9,2.9,0,0,1,0,.51,11.46,11.46,0,0,1-.34,2.61h-5.53c-.18,1.54.8,2.18,2.42,2.18a6.67,6.67,0,0,0,2.88-.66Z" transform="translate(-6 -2.33)"/><path class="cls-5" d="M148.76,98.16a3.09,3.09,0,0,0,2.13,3c1.13.53,1.31.69,1.31,1.17,0,.66-.5,1-1.61,1a7.63,7.63,0,0,1-2.5-.42s-.37,2.34-.38,2.45a12.8,12.8,0,0,0,2.89.32c3,0,4.31-1.12,4.31-3.55a2.9,2.9,0,0,0-2-3c-1.17-.54-1.3-.66-1.3-1.16s.46-.86,1.36-.86a15.12,15.12,0,0,1,2,.16l.39-2.46a20.08,20.08,0,0,0-2.45-.21c-3.13,0-4.21,1.63-4.2,3.59" transform="translate(-6 -2.33)"/><path class="cls-5" d="M181.57,94.86a5.23,5.23,0,0,1,2.5.7l.45-2.83a8.16,8.16,0,0,0-3.06-1.1,5.56,5.56,0,0,0-4.56,2.45c-1.62-.53-2.29.55-3.1,1.63l-.73.17a4.79,4.79,0,0,0,.09-1.07H170.6c-.35,3.29-1,6.61-1.45,9.9l-.13.71h2.79c.46-3,.72-5,.87-6.28l1.06-.58c.16-.59.65-.79,1.63-.76a12.17,12.17,0,0,0-.2,2.17c0,3.47,1.88,5.63,4.88,5.63a8.53,8.53,0,0,0,2.46-.38l.49-3a5.34,5.34,0,0,1-2.37.66c-1.62,0-2.6-1.19-2.6-3.17,0-2.88,1.46-4.89,3.54-4.89" transform="translate(-6 -2.33)"/><path class="cls-5" d="M201.71,103c-1,0-1.43-.7-1.43-2.09,0-2.09.9-3.56,2.17-3.56,1,0,1.47.73,1.47,2.08C203.92,101.5,203,103,201.71,103Zm3.49-10.59-.62,3.77a3.48,3.48,0,0,0-2.66-1.73,4.3,4.3,0,0,0-3.53,2.63,24.49,24.49,0,0,1-2.37-.66h0a14.18,14.18,0,0,0,.12-1.59h-2.57c-.35,3.28-1,6.6-1.45,9.89l-.13.71h2.79q.57-3.68.88-6.09c1-.87,1.43-1.62,2.39-1.57a9.2,9.2,0,0,0-.67,3.44c0,2.65,1.34,4.4,3.37,4.4a3.27,3.27,0,0,0,2.57-1.17l-.13,1h2.63l2.13-13Z" transform="translate(-6 -2.33)"/><polyline class="cls-6" points="132.99 102.32 130.2 102.32 131.8 92.3 128.23 102.32 126.33 102.32 126.09 92.35 124.41 102.32 121.8 102.32 123.98 89.28 128 89.28 128.11 97.35 130.82 89.28 135.15 89.28 132.99 102.32"/><path class="cls-6" d="M147.89,104.64h-2.31l0-1.09a3.5,3.5,0,0,1-2.92,1.28,2.61,2.61,0,0,1-2.57-2.65c0-.08,0-.17,0-.25,0-2.58,1.8-4.08,4.9-4.08a8.74,8.74,0,0,1,1.14.08,2.68,2.68,0,0,0,.1-.69c0-.7-.48-1-1.79-1a9.24,9.24,0,0,0-2.95.47c0-.17.39-2.38.39-2.38a10.78,10.78,0,0,1,3.34-.56c2.39,0,3.66,1.07,3.66,3.11a13.49,13.49,0,0,1-.23,2.1C148.48,100.55,148,103.84,147.89,104.64Zm-2-4.72c-.2,0-.41,0-.62,0-1.58,0-2.38.55-2.38,1.62a1,1,0,0,0,.86,1.07h.14C145,102.57,145.82,101.49,145.86,99.92Z" transform="translate(-6 -2.33)"/><path class="cls-6" d="M185.33,92l-.46,2.83a5.34,5.34,0,0,0-2.49-.71c-2.09,0-3.55,2-3.55,4.89,0,2,1,3.17,2.61,3.17a5.34,5.34,0,0,0,2.37-.66l-.49,3a9,9,0,0,1-2.47.38c-3,0-4.87-2.16-4.87-5.63,0-4.66,2.59-7.92,6.29-7.92a9.77,9.77,0,0,1,3.06.68" transform="translate(-6 -2.33)"/><path class="cls-6" d="M191.86,104.64h-2.31l0-1.09a3.5,3.5,0,0,1-2.92,1.28,2.61,2.61,0,0,1-2.57-2.65,2.11,2.11,0,0,1,0-.25c0-2.58,1.8-4.08,4.9-4.08a8.47,8.47,0,0,1,1.13.08,2.31,2.31,0,0,0,.11-.69c0-.7-.48-1-1.79-1a9.24,9.24,0,0,0-2.95.47c0-.17.39-2.38.39-2.38a10.78,10.78,0,0,1,3.34-.56c2.39,0,3.66,1.07,3.66,3.11a13.49,13.49,0,0,1-.23,2.1C192.45,100.55,191.93,103.84,191.86,104.64Zm-2-4.72c-.21,0-.41,0-.62,0-1.58,0-2.38.55-2.38,1.62a1,1,0,0,0,.86,1.07h.14C189,102.57,189.78,101.49,189.83,99.92Z" transform="translate(-6 -2.33)"/><path class="cls-6" d="M160.3,104.49a6.57,6.57,0,0,1-2,.34,2,2,0,0,1-2.22-1.85,1.93,1.93,0,0,1,0-.48,24.65,24.65,0,0,1,.38-2.83c.16-1,1.21-7.23,1.21-7.23h2.77l-.32,1.6h1.43l-.38,2.55h-1.44c-.32,2-.78,4.53-.79,4.86,0,.55.29.79,1,.79a2.18,2.18,0,0,0,.76-.1l-.36,2.35" transform="translate(-6 -2.33)"/><path class="cls-6" d="M167.25,98.11c0-.22.29-1.89-1.29-1.89-.89,0-1.52.67-1.78,1.89Zm1.56,6.29a9.47,9.47,0,0,1-2.85.43c-3.11,0-4.72-1.63-4.72-4.73,0-3.63,2.06-6.3,4.85-6.3a3.55,3.55,0,0,1,3.76,3.32,4.47,4.47,0,0,1,0,.52,11.46,11.46,0,0,1-.34,2.61H164c-.19,1.54.8,2.18,2.41,2.18a6.59,6.59,0,0,0,2.89-.67Z" transform="translate(-6 -2.33)"/><path class="cls-6" d="M149.57,97.39a3.11,3.11,0,0,0,2.12,3c1.13.52,1.31.68,1.31,1.17,0,.65-.5,1-1.61,1a7.89,7.89,0,0,1-2.5-.41l-.38,2.44a12.83,12.83,0,0,0,2.9.32c2.94,0,4.3-1.12,4.3-3.54a2.89,2.89,0,0,0-2-3c-1.17-.54-1.3-.66-1.3-1.15s.46-.87,1.37-.87a14.84,14.84,0,0,1,2,.16l.4-2.46a20.41,20.41,0,0,0-2.46-.21c-3.12,0-4.2,1.63-4.19,3.59" transform="translate(-6 -2.33)"/><path class="cls-6" d="M202.51,102.2c1.3,0,2.22-1.48,2.22-3.58,0-1.35-.52-2.08-1.48-2.08-1.27,0-2.17,1.48-2.17,3.56C201.08,101.49,201.57,102.2,202.51,102.2Zm4.12,2.45H204l.13-1a3.27,3.27,0,0,1-2.57,1.17c-2,0-3.37-1.75-3.37-4.4,0-3.53,2.08-6.5,4.54-6.5a3.12,3.12,0,0,1,2.66,1.45l.62-3.77h2.75Z" transform="translate(-6 -2.33)"/><path class="cls-6" d="M194.37,94c-.34,3.28-1,6.61-1.45,9.89l-.13.71h2.79c1-6.48,1.24-7.75,2.8-7.59A10.45,10.45,0,0,1,199.44,94c-1.17-.25-1.82.41-2.68,1.67a9.67,9.67,0,0,0,.17-1.61h-2.56" transform="translate(-6 -2.33)"/><path class="cls-6" d="M171.4,94c-.35,3.28-1,6.61-1.46,9.89l-.13.71h2.79c1-6.48,1.24-7.75,2.81-7.59A10.43,10.43,0,0,1,176.46,94c-1.17-.25-1.82.41-2.67,1.67A10.87,10.87,0,0,0,174,94H171.4" transform="translate(-6 -2.33)"/></g><g class="cls-9"><polyline class="cls-10" points="54.58 109.55 58.55 84.92 64.9 84.92 60.93 109.55 54.58 109.55"/><path class="cls-10" d="M90,87.85a15.59,15.59,0,0,0-5.69-1C78,86.81,73.58,90.16,73.54,95c0,3.54,3.16,5.52,5.56,6.69s3.3,2,3.29,3.06c0,1.65-2,2.41-3.8,2.41a12.76,12.76,0,0,1-6-1.3l-.81-.38-.89,5.51A19,19,0,0,0,78,112.25c6.67,0,11-3.3,11.06-8.41,0-2.81-1.67-4.94-5.34-6.69-2.21-1.15-3.58-1.9-3.56-3.06S81.29,92,83.78,92a11.12,11.12,0,0,1,4.75,1l.57.28L90,87.86" transform="translate(-6 -2.33)"/><path class="cls-10" d="M106.24,87.27h-4.91a3.14,3.14,0,0,0-3.33,2l-9.42,22.57h6.67s1.08-3,1.33-3.7l8.14,0c.19.85.77,3.68.77,3.68h5.89Zm-7.83,15.87,2.53-6.88c0,.06.52-1.43.84-2.35l.43,2.12s1.22,5.88,1.47,7.11Z" transform="translate(-6 -2.33)"/><path class="cls-10" d="M55.26,87.26l-6.21,16.79-.67-3.41a18.94,18.94,0,0,0-8.79-10.33l5.68,21.54H52L62,87.26H55.26" transform="translate(-6 -2.33)"/><path class="cls-11" d="M43.28,87.25H33l-.08.51c8,2,13.23,7,15.42,12.88L46.16,89.33a2.67,2.67,0,0,0-2.88-2.08" transform="translate(-6 -2.33)"/></g><g class="cls-12"><path class="cls-13" d="M358.32,105.66c0,2.9-2.18,3.5-4.36,3.5h-3.13v3.5H346l-3.09-3.45-3.2,3.45h-9.92V102.22h10.07l3.08,3.43,3.19-3.43h8C356.08,102.22,358.32,102.77,358.32,105.66Zm-19.91,4.83h-6.15v-2.08h5.49v-2.13h-5.49v-1.9h6.28l2.74,3Zm9.93,1.22-3.84-4.25,3.84-4.12Zm5.73-4.67h-3.23v-2.66h3.26c.91,0,1.53.37,1.53,1.28S355,107,354.07,107ZM371,102.22h8.35v2.16h-5.86v1.9h5.72v2.13h-5.72v2.08h5.87v2.16H371Zm-3.17,5.59a2.65,2.65,0,0,1,1.23.88,3,3,0,0,1,.42,1.9v2.07h-2.52v-1.3c0-.63.07-1.56-.4-2a2.47,2.47,0,0,0-1.84-.46H362v3.81h-2.52V102.22h5.78a6.26,6.26,0,0,1,3,.49,2.46,2.46,0,0,1,1.29,2.33,2.94,2.94,0,0,1-1.78,2.77Zm-1.51-1.3a2.36,2.36,0,0,1-1.23.21h-3v-2.34h3.08a2.41,2.41,0,0,1,1.19.19,1,1,0,0,1,.52.94,1.13,1.13,0,0,1-.52,1Zm22.59.64a2.93,2.93,0,0,1,.75,2.22c0,2.24-1.41,3.29-3.93,3.29h-4.88v-2.23h4.86a1.47,1.47,0,0,0,1-.26,1,1,0,0,0,.3-.68.9.9,0,0,0-.31-.69,1.28,1.28,0,0,0-.89-.24c-2.34-.08-5.27.08-5.27-3.22,0-1.52,1-3.11,3.58-3.11h5v2.22h-4.59a1.69,1.69,0,0,0-1,.19.88.88,0,0,0-.22,1.21.9.9,0,0,0,.39.31,2.72,2.72,0,0,0,1,.12l1.35,0a4,4,0,0,1,2.86.83Zm10,4.18a3.91,3.91,0,0,1-3.39,1.34h-4.84v-2.24h4.82a1.46,1.46,0,0,0,1-.26.9.9,0,0,0,.29-.68.86.86,0,0,0-.3-.69,1.27,1.27,0,0,0-.88-.24c-2.35-.08-5.29.08-5.29-3.22,0-1.52,1-3.11,3.6-3.11h5v-2.09h-4.63a5.28,5.28,0,0,0-3.14.85v-.85h-6.85a4.76,4.76,0,0,0-3,.85v-.85H369V101a6.44,6.44,0,0,0-3.38-.85h-8.08V101a5.68,5.68,0,0,0-3.52-.85h-9l-2.07,2.23L341,100.15H327.5v14.57h13.24l2.13-2.27,2,2.27H353v-3.43h.81a8.42,8.42,0,0,0,3.48-.51v3.93h6.74v-3.79h.32c.41,0,.46,0,.46.43v3.36h20.44a5.78,5.78,0,0,0,3.41-.93v.93h6.49a8.55,8.55,0,0,0,3.67-.67Zm0-6.89H394.3a1.76,1.76,0,0,0-1,.19.8.8,0,0,0-.37.75.79.79,0,0,0,.55.78,3.12,3.12,0,0,0,1,.12l1.36,0a4,4,0,0,1,2.84.84,1.38,1.38,0,0,1,.23.26Z" transform="translate(-6 -2.33)"/><path class="cls-13" d="M309.79,96.74h4.28l1-2.33h2.16l1,2.33h8.42V95l.75,1.79h4.38l.75-1.81v1.8h20.92V92.93h.4c.29,0,.37,0,.37.5v3.31H365v-.89a8.56,8.56,0,0,0,4,.89h4.55l1-2.33h2.15l.95,2.33h8.77v-2.2l1.33,2.2h7V82.17h-7v1.72l-1-1.72h-7.14v1.72l-.89-1.72h-9.65a8.83,8.83,0,0,0-4.17.85v-.85h-6.66V83a4.14,4.14,0,0,0-2.82-.85H331.15l-1.63,3.77-1.68-3.77h-7.65v1.72l-.84-1.72h-6.53l-3,6.93Zm82.69-2h-3.54l-4.75-7.84v7.84h-5.1l-1-2.33h-5.2L372,94.69H369a4.44,4.44,0,0,1-5-5.15,5.59,5.59,0,0,1,1.35-4.08,5.09,5.09,0,0,1,3.81-1.22h2.42v2.24h-2.37a2.44,2.44,0,0,0-1.93.62,3.48,3.48,0,0,0-.72,2.37,3.59,3.59,0,0,0,.69,2.45,2.39,2.39,0,0,0,1.74.54h1.13l3.53-8.21h3.74l4.24,9.88V84.25h3.81l4.4,7.27V84.25h2.57Zm-29.63,0h-2.56V84.24h2.56Zm-4-7.63a2.93,2.93,0,0,1-1.76,2.78,2.94,2.94,0,0,1,1.24.88,3,3,0,0,1,.41,1.91v2.06h-2.52V93.37a3.17,3.17,0,0,0-.4-2,2.45,2.45,0,0,0-1.82-.44h-2.69v3.8h-2.51V84.24h5.76a6,6,0,0,1,3,.5,2.45,2.45,0,0,1,1.26,2.32Zm-11.79,7.63h-8.36V84.24h8.36v2.18h-5.86V88.3h5.72v2.14h-5.72v2.09h5.86Zm-10.23,0h-2.57V86.51l-3.63,8.18h-2.19l-3.64-8.19v8.19h-5.1l-1-2.33h-5.21l-1,2.33h-2.71l4.48-10.45H318l4.26,9.89V84.24h4.09l3.27,7.09,3-7.09h4.17V94.69Zm40.45-4.51L375.53,86l-1.72,4.16Zm-21.7-1.66a2.29,2.29,0,0,1-1.24.22h-3V86.41h3.08a2.69,2.69,0,0,1,1.19.19,1,1,0,0,1,.52.92,1,1,0,0,1-.51,1Zm-37.75,1.66L316.1,86l-1.7,4.16Z" transform="translate(-6 -2.33)"/></g><path class="cls-14" d="M453.48,96.79a22.06,22.06,0,0,1-4.22.17c-.52,0-1.05,0-1.58.06-.06,0-.15,0-.18,0a.26.26,0,0,0-.06.18c0,2.31,0,4.62,0,6.93,0,1.4,0,1.39-1.35,1.42-.34,0-.72-.13-1,.2-.34-.18-.19-.5-.19-.76q0-10.11,0-20.24c0-.24-.18-.57.18-.74a1,1,0,0,1,0,.17v20h.21v-20c2.15,0,4.31,0,6.47,0,.41,0,.86.15,1.22-.18,2.78,0,6.11,2.75,6.18,5.75a1.41,1.41,0,0,0,0,1.48,6.37,6.37,0,0,1-5.11,5.52c-.34-.28-.7-.21-1.3,0Zm-.74-10.25s.05-.06.05-.09,0-.08,0-.08c-.88,0-1.76-.1-2.64-.05s-1.55-.28-2.26.22l-.21.22-.15-.22s-.07.1-.07.16v7.06a.47.47,0,0,0,.25.43c1.64,0,3.28.07,4.92,0,.36,0,.67.18,1.15-.06A4.93,4.93,0,0,0,456.4,91a.86.86,0,0,0,0-1.27A4.36,4.36,0,0,0,452.74,86.54Zm-4.6,10.07,0,.11h3.8v-.11Z" transform="translate(-6 -2.33)"/><path class="cls-14" d="M470.76,92.28a3.66,3.66,0,0,1,1.44,2.36c-.26.34-.2.7,0,1.27l.1-.7a2,2,0,0,1,.18,1.14q0,4.32,0,8.65c0,.25.16.58-.21.74-.84-.44-2.35.21-2.39-1.5-.09-.48-.25-.49-.54-.1a4.21,4.21,0,0,1-2,1.59.38.38,0,0,0-.53-.14c-.16.08-.3.19-.09.37a3.46,3.46,0,0,1-2.43.22l.7-.07a1.76,1.76,0,0,0-1.49,0c-3.31-.83-5-3.53-4.06-6.49.62-2,2.73-3.36,5.34-3.47a2.78,2.78,0,0,0,2.12,0,10.81,10.81,0,0,1,3,.74s0,.06.08.07h.1c0-.35.37-.76-.18-1A4.17,4.17,0,0,0,466,92.75c0-.09.47,0,.15-.22a.58.58,0,0,0-.72.09l.28.13a4.77,4.77,0,0,0-3.28,1.77c-.19.26-.39.23-.62,0a6.1,6.1,0,0,0-.54-.34c-1.76-1.1-1.76-1.2-.14-2.47a8.13,8.13,0,0,1,8.63-.36C469.74,92.08,470.1,92.35,470.76,92.28ZM462,101.19a3.3,3.3,0,0,0,4.66,2.37,4.68,4.68,0,0,0,3-3.24,1,1,0,0,0-.7-1.43,7.12,7.12,0,0,0-3.76-.47,3.44,3.44,0,0,0-3.19,2.69c0-.07,0-.18-.06-.2-.36-.18-.11.17-.19.23.08.07-.17.4.19.25C462,101.37,462,101.26,462,101.19Z" transform="translate(-6 -2.33)"/><path class="cls-14" d="M475.91,111.93c.94-2.06,1.84-4.13,2.83-6.17a1.87,1.87,0,0,0,0-1.78c-1.82-4-3.58-8.11-5.39-12.16-.34-.75-.32-1,.64-1,2,0,2,0,2.73,1.8l3.74,9.06c1.5-3.6,2.93-7.06,4.37-10.52a1.8,1.8,0,0,0,1.52-.13c.46,0,1-.22,1.34.25-2.33,5.4-4.64,10.79-7,16.18a35.85,35.85,0,0,1-2.25,4.88,1.26,1.26,0,0,0-1.08-.23A2,2,0,0,1,475.91,111.93Z" transform="translate(-6 -2.33)"/><path class="cls-15" d="M413,89.11a12.1,12.1,0,0,1,10-6.84,4.34,4.34,0,0,0,2.76,0,.84.84,0,0,1,.7.16l-.26.11s.06.11.1.11c.25,0,.53.07.74-.15a11.73,11.73,0,0,1,5,2.42c.51.38.48.65,0,1.07a22.62,22.62,0,0,0-1.65,1.6c-1.15,1.34-1.19,1.3-2.73.43a7.36,7.36,0,0,0-10,3c-.24.42-.45.87-.67,1.31Q415.06,90.71,413,89.11Z" transform="translate(-6 -2.33)"/><path class="cls-16" d="M417.11,97.2a7.74,7.74,0,0,0,5.57,5,8.1,8.1,0,0,0,5.89-1l3.94,3.09a10.5,10.5,0,0,1-7.11,2.94,5.21,5.21,0,0,0-3,0,12.29,12.29,0,0,1-9.41-6.83Z" transform="translate(-6 -2.33)"/><path class="cls-17" d="M432.51,104.27l-3.94-3.09a7.28,7.28,0,0,0,2.19-2.81c.29-.75.24-1.09-.7-1.05-1.55.06-3.11,0-4.67,0-.34,0-.71.14-1-.14h6.35a31.57,31.57,0,0,0-5.14-.19c-.87,0-1.16-.28-1-1.09v-3.2h11.37a6.77,6.77,0,0,1,.19,4.31.41.41,0,0,0-.05-.19c-.09-.1-.16-.06-.16.06s-.08.53.17.73A10.66,10.66,0,0,1,432.51,104.27Z" transform="translate(-6 -2.33)"/><path class="cls-18" d="M417.11,97.2l-4.1,3.15a12,12,0,0,1,0-11.24q2,1.61,4.07,3.19A9.8,9.8,0,0,0,417.11,97.2Z" transform="translate(-6 -2.33)"/><path class="cls-19" d="M435.92,92.7h-11.6c.12-.33.41-.21.64-.21h10.3C435.5,92.49,435.77,92.41,435.92,92.7Z" transform="translate(-6 -2.33)"/><path class="cls-20" d="M445.08,105.73c.28-.33.66-.2,1-.2,1.35,0,1.35,0,1.35-1.42,0-2.31,0-4.62,0-6.93a.26.26,0,0,1,.06-.18s.12,0,.18,0c0,2.62,0,5.23,0,7.85,0,.73-.18,1-.94.93C446.22,105.74,445.65,105.75,445.08,105.73Z" transform="translate(-6 -2.33)"/><path class="cls-21" d="M453,84c-.36.33-.81.18-1.22.18-2.16,0-4.32,0-6.47,0h-.21a1,1,0,0,0,0-.17Z" transform="translate(-6 -2.33)"/><path class="cls-22" d="M424.55,95.91c-.12.81.17,1.12,1,1.09a31.57,31.57,0,0,1,5.14.19h-6.35a2.32,2.32,0,0,1-.05-1.28Z" transform="translate(-6 -2.33)"/><path class="cls-23" d="M469.86,104.24c0,1.71,1.55,1.06,2.39,1.5-.36,0-.71,0-1.06,0C469.73,105.78,469.73,105.78,469.86,104.24Z" transform="translate(-6 -2.33)"/><path class="cls-24" d="M487.69,91.27c-.37-.47-.88-.2-1.34-.25h-1.46c.88-.46,1.83-.15,2.75-.18C488,90.82,487.84,91.1,487.69,91.27Z" transform="translate(-6 -2.33)"/><path class="cls-25" d="M424.55,95.91h-.22c0-1.07,0-2.13,0-3.2h.23Z" transform="translate(-6 -2.33)"/><path class="cls-26" d="M475.91,111.93a2,2,0,0,0,1.45.17,1.26,1.26,0,0,1,1.08.23l-2.27.07C475.78,112.41,475.64,112.28,475.91,111.93Z" transform="translate(-6 -2.33)"/><path class="cls-27" d="M422.42,107.18a5.21,5.21,0,0,1,3,0A11.88,11.88,0,0,1,422.42,107.18Z" transform="translate(-6 -2.33)"/><path class="cls-28" d="M425.82,82.28a4.34,4.34,0,0,1-2.76,0A12.13,12.13,0,0,1,425.82,82.28Z" transform="translate(-6 -2.33)"/><path class="cls-29" d="M470.76,92.28c-.66.07-1-.2-1-.88A1.52,1.52,0,0,1,470.76,92.28Z" transform="translate(-6 -2.33)"/><path class="cls-30" d="M466.89,96.17a2.78,2.78,0,0,1-2.12,0Z" transform="translate(-6 -2.33)"/><path class="cls-31" d="M484.89,91h1.46a1.8,1.8,0,0,1-1.52.13A.13.13,0,0,1,484.89,91Z" transform="translate(-6 -2.33)"/><path class="cls-32" d="M463.49,106.12a1.76,1.76,0,0,1,1.49,0l-.7.07Z" transform="translate(-6 -2.33)"/><path class="cls-33" d="M469.85,96c.55.26.17.67.18,1h-.1s-.05,0-.08-.07Z" transform="translate(-6 -2.33)"/><path class="cls-34" d="M459.17,91.21a1.41,1.41,0,0,1,0-1.48Z" transform="translate(-6 -2.33)"/><path class="cls-35" d="M453.48,96.79l-.72-.1c.6-.17,1-.24,1.3,0Z" transform="translate(-6 -2.33)"/><path class="cls-33" d="M465.69,92.75l-.28-.13a.58.58,0,0,1,.72-.09c.32.22-.11.13-.15.22Z" transform="translate(-6 -2.33)"/><path class="cls-31" d="M466.71,106c-.21-.18-.07-.29.09-.37a.38.38,0,0,1,.53.14A.76.76,0,0,1,466.71,106Z" transform="translate(-6 -2.33)"/><path class="cls-34" d="M472.28,95.21l-.1.7c-.18-.57-.24-.93,0-1.27Z" transform="translate(-6 -2.33)"/><path class="cls-36" d="M436.07,97.61c-.25-.2-.18-.48-.17-.73s.07-.16.16-.06a.41.41,0,0,1,.05.19Z" transform="translate(-6 -2.33)"/><path class="cls-37" d="M427.1,82.51c-.21.22-.49.16-.74.15,0,0-.07-.07-.1-.11l.26-.11Z" transform="translate(-6 -2.33)"/><path class="cls-38" d="M445.09,84.16h.21v20h-.21Z" transform="translate(-6 -2.33)"/><path class="cls-39" d="M447.66,86.76l0,7.43a.47.47,0,0,1-.25-.43V86.7c0-.06.05-.11.07-.16Z" transform="translate(-6 -2.33)"/><path class="cls-39" d="M452.74,86.54h-4.87c.71-.5,1.51-.18,2.26-.22s1.76,0,2.64.05c0,0,0,0,0,.08S452.76,86.51,452.74,86.54Z" transform="translate(-6 -2.33)"/><path class="cls-40" d="M448.14,96.61h3.77v.11h-3.8Z" transform="translate(-6 -2.33)"/><path class="cls-41" d="M456.4,91l0-1.27A.86.86,0,0,1,456.4,91Z" transform="translate(-6 -2.33)"/><path class="cls-42" d="M462,101.11v.08c0,.07,0,.18-.06.2-.36.15-.11-.18-.19-.25.08-.06-.17-.41.19-.23C462,100.93,462,101,462,101.11Z" transform="translate(-6 -2.33)"/><path d="M518.71,81.16a5.45,5.45,0,0,1-.19,1.88,5.57,5.57,0,0,1-3.32,3.78,3.6,3.6,0,0,1-1.66.25,3.2,3.2,0,0,1,0-1.07,5.82,5.82,0,0,1,4.4-4.74l.53-.1Z" transform="translate(-6 -2.33)"/><path d="M523.39,89.9a5.67,5.67,0,0,0-2.76,5.26A5.61,5.61,0,0,0,524,100c0,.11-.07.23-.11.34a15.53,15.53,0,0,1-3.08,5.15,3.7,3.7,0,0,1-1.76,1.17,3.61,3.61,0,0,1-2.4-.23,13.65,13.65,0,0,0-1.39-.52,4.92,4.92,0,0,0-3.23.27,12.68,12.68,0,0,1-1.34.5,2.92,2.92,0,0,1-2.88-.71,10.92,10.92,0,0,1-1.58-1.82,16.14,16.14,0,0,1-2.81-6.3,11.76,11.76,0,0,1-.1-4.8,7,7,0,0,1,2.5-4.27,6,6,0,0,1,3.78-1.34,5.64,5.64,0,0,1,2,.44l1.45.54a1.93,1.93,0,0,0,1.38,0c.65-.24,1.31-.49,2-.72a5.5,5.5,0,0,1,2.05-.35,6,6,0,0,1,4.44,1.92C523.07,89.48,523.23,89.69,523.39,89.9Z" transform="translate(-6 -2.33)"/><path d="M534.55,98.53v8.07h-3.67V83h8.93a8.11,8.11,0,0,1,4.39,1.22,6.91,6.91,0,0,1,3,4A8.49,8.49,0,0,1,547,93.9a7.1,7.1,0,0,1-5.07,4.36,8.86,8.86,0,0,1-2.24.27h-5.09Zm0-12.47v9.38h4.21a6.94,6.94,0,0,0,1.87-.23,4,4,0,0,0,2.93-2.78,6,6,0,0,0,.05-3.21,3.89,3.89,0,0,0-2.43-2.76,6.15,6.15,0,0,0-2.29-.41c-1.4,0-2.81,0-4.22,0Z" transform="translate(-6 -2.33)"/><path d="M559.7,103.78a.27.27,0,0,0-.07.08,5.64,5.64,0,0,1-3.74,2.73,6.73,6.73,0,0,1-4.63-.43,4.67,4.67,0,0,1-2.8-4.5,4.2,4.2,0,0,1,1.07-3,5.31,5.31,0,0,1,2.13-1.38,10.77,10.77,0,0,1,3.18-.64l4.66-.28.12,0a9.85,9.85,0,0,0-.14-2.3,2.53,2.53,0,0,0-1.83-1.76,4.92,4.92,0,0,0-3.32.14,2.78,2.78,0,0,0-1.69,2s0,0,0,.06h-3.31c0-.28.06-.56.11-.83a5.08,5.08,0,0,1,2.22-3.18,7.44,7.44,0,0,1,3.32-1.2,9.75,9.75,0,0,1,4.48.44,5.65,5.65,0,0,1,2.69,1.9,5.21,5.21,0,0,1,1,3.21v11.61s0,.08,0,.13h-3.39v-2.81Zm-.05-4.91h-.19c-1.4.09-2.81.17-4.21.27a5.68,5.68,0,0,0-1.81.42,2.16,2.16,0,0,0-1.33,2.62,2.12,2.12,0,0,0,1.43,1.51,4.92,4.92,0,0,0,4.51-.53,3.25,3.25,0,0,0,1.48-2.25C559.63,100.25,559.61,99.57,559.65,98.87Z" transform="translate(-6 -2.33)"/><path d="M566.3,113v-2.83l.79,0a3.78,3.78,0,0,0,1.6-.2,2.55,2.55,0,0,0,1.25-1.06,5.23,5.23,0,0,0,.56-1.31c.09-.26.18-.52.26-.79a.46.46,0,0,0,0-.26q-1.93-5.39-3.89-10.76l-2.22-6.16s0-.11-.06-.18h3.68c.12,0,.17,0,.2.15q2.12,6.81,4.22,13.64l.07.19h0a.51.51,0,0,0,.07-.15l2.07-6.66,2.16-7a.2.2,0,0,1,.23-.17h3.55c0,.06,0,.11,0,.15q-3.27,9.15-6.53,18.29a12,12,0,0,1-1.49,2.94,5.1,5.1,0,0,1-3.49,2.1,11.33,11.33,0,0,1-2.85.06Z" transform="translate(-6 -2.33)"/><path d="M675.31,110l-.26.21c-1,.68-1.24.64-1.88-.34L669.36,104q-2.88-4.4-5.75-8.79a5.72,5.72,0,0,0-5-2.75c-.85,0-1.71,0-2.56,0-.41,0-.62.1-.71.55-.31,1.45-.34,1.45.94,2.2l5.33,3.13.46.3c-1.13,1.11-1.39,1.13-2.65.4q-4.44-2.6-8.92-5.14a17.92,17.92,0,0,0-2.65-1.17,1.75,1.75,0,0,0-2,.5c-.66.66-.63,1.19.09,1.79l7.09,5.9c1.34,1.12,2.68,2.26,4,3.4a6.69,6.69,0,0,1,2.26,3.37c.86,3.16,3.11,4.78,6.08,5.65l.76.19c1.33.34,1.37.42,1.06,1.89-3.51-.49-6.55-1.78-8.64-5a9.23,9.23,0,0,0-2,1.26,34.23,34.23,0,0,1-16,9.22,47.36,47.36,0,0,1-22.41,1c-5.62-1.13-11-2.91-15.74-6.36-3.78-2.76-7-6-8.68-10.45-2.44-6.34-1.46-12.24,2.66-17.64,4.45-5.85,10.53-9.2,17.45-11.15A47.32,47.32,0,0,1,646.5,78.3,27.7,27.7,0,0,1,658,87c.77,1,1.4,2.19,2.17,3.23a3,3,0,0,0,1.23,1,8,8,0,0,1,3.7,3c3.4,5.15,6.76,10.33,10.14,15.5C675.24,109.77,675.26,109.84,675.31,110ZM658.36,90.59c-.61-.89-1.08-1.68-1.64-2.41a28.21,28.21,0,0,0-12-8.75c-10.5-4.28-21.18-4.32-31.9-1a29.69,29.69,0,0,0-14,8.86c-5.33,6.11-6,13.57-1.75,20.23a24.2,24.2,0,0,0,8.09,7.63c6.56,4,13.78,5.62,21.38,5.87a46.91,46.91,0,0,0,10.7-1.1,34.72,34.72,0,0,0,16.82-8,2.61,2.61,0,0,1,.63-.3,15.85,15.85,0,0,0-2.2-1c-.66-.27-1.32-.53-2-.83a2.78,2.78,0,0,1-1.3-4.09l.47-.76c-1.86-1.08-3.61-2.21-2.13-4.74l-.35-.1c-2.37-.47-4.74-.92-7.1-1.41a1.48,1.48,0,0,1-1.33-2q.9-4.63,1.81-9.26c.25-1.26.87-1.67,2.13-1.43l11,2.07c2,.38,2.29.67,2.25,2.79Zm-16.13-3-1.76,9.35,6.45,1.24a24.71,24.71,0,0,0-2.1-1.89,2.62,2.62,0,0,1-.45-3.84,3.57,3.57,0,0,1,4.06-1.27,18.47,18.47,0,0,1,3.11,1.34c.65.31,1.25.71,1.94,1.1l.68-3.73Zm14.27,18.54c-.27-.24-.45-.42-.65-.59-1.75-1.48-3.52-2.93-5.24-4.45-.63-.56-1-.54-1.71.22-.41.45-.24.82.53,1.33,1.68,1.11,3.38,2.18,5,3.34A1.92,1.92,0,0,0,656.5,106.09Zm-5.26-.18c-1.14,1-1.06,1.73.21,2.28a23.35,23.35,0,0,1,2.35,1,3.75,3.75,0,0,0,3.71-.11c.33-.17.56-.37.37-.69a1.1,1.1,0,0,0-.68-.52,3.23,3.23,0,0,0-1,.17,2.92,2.92,0,0,1-2.6-.55C652.83,106.9,652,106.42,651.24,105.91Z" transform="translate(-6 -2.33)"/><path d="M632.74,99.11a27.45,27.45,0,0,0-2.82-13.3c-.21-.43-.42-.85-.6-1.29A1.81,1.81,0,0,1,630.1,82a1.78,1.78,0,0,1,2.51.71A21,21,0,0,1,634,85.3a30.39,30.39,0,0,1-.79,26.76,6.83,6.83,0,0,1-.87,1.38,1.67,1.67,0,0,1-2.28.37,1.87,1.87,0,0,1-.82-2.33c.5-1.15,1.07-2.27,1.57-3.41A24,24,0,0,0,632.74,99.11Z" transform="translate(-6 -2.33)"/><path d="M629.83,97.68a23.3,23.3,0,0,1-2.58,11.08,7,7,0,0,1-1.13,1.61,1.61,1.61,0,0,1-2.14.28,1.78,1.78,0,0,1-.87-2.05,16.41,16.41,0,0,1,.85-2,19.68,19.68,0,0,0-.21-17.78,9.15,9.15,0,0,1-.66-1.71,1.62,1.62,0,0,1,1-1.9,1.76,1.76,0,0,1,2.29.52c1.69,3.39,3.39,6.78,3.44,10.7C629.84,96.83,629.83,97.25,629.83,97.68Z" transform="translate(-6 -2.33)"/><path d="M623,97.75a15.68,15.68,0,0,1-2.48,9,1.74,1.74,0,0,1-2.53.79,1.81,1.81,0,0,1-.82-2.48c.4-1.07.83-2.12,1.22-3.18a11.61,11.61,0,0,0-.32-9c-.27-.65-.57-1.29-.85-1.95a1.83,1.83,0,0,1,.76-2.61,2,2,0,0,1,2.59.91A15.88,15.88,0,0,1,623,97.75Z" transform="translate(-6 -2.33)"/><path d="M616.58,97.81a9.76,9.76,0,0,1-2.19,6.3,1.86,1.86,0,0,1-3.25-1.11,3.36,3.36,0,0,1,.42-1.46,7.92,7.92,0,0,0,1.08-3.34,7.12,7.12,0,0,0-1.18-4.08,1.78,1.78,0,0,1-.18-1.87,1.86,1.86,0,0,1,3.25-.35,9.08,9.08,0,0,1,1.92,4.66C616.5,97,616.55,97.45,616.58,97.81Z" transform="translate(-6 -2.33)"/><path d="M741.22,116.73h-45.9V85.57H755v4.85c-1.85.34-3.68.58-5.46,1a12.58,12.58,0,0,0-6,3.24,7.21,7.21,0,0,0-2.27,5.39c0,5.18,0,10.36,0,15.54Zm-4.66-15.59a11.43,11.43,0,1,0-11.47,11.45A11.48,11.48,0,0,0,736.56,101.14Z" transform="translate(-6 -2.33)"/><path d="M690.13,111.83h-5V75.44h64.36v5H690.13Z" transform="translate(-6 -2.33)"/><path d="M755,105.12a18.89,18.89,0,0,1-6.52-1.62,8.83,8.83,0,0,1-2.27-1.54,2.9,2.9,0,0,1,0-4.45,10.33,10.33,0,0,1,5.57-2.58,19.16,19.16,0,0,1,11.35.91,9.12,9.12,0,0,1,2.68,1.79,2.84,2.84,0,0,1,0,4.3,10.2,10.2,0,0,1-5.83,2.69C758.3,104.9,756.62,105,755,105.12Z" transform="translate(-6 -2.33)"/><path d="M766.62,115.78c.47,2.48-.21,3.93-2.52,5.17a17.86,17.86,0,0,1-9.7,1.74,14.75,14.75,0,0,1-6.89-1.9c-2.14-1.27-2.74-2.72-2.25-5C752.36,119.83,759.44,119.85,766.62,115.78Z" transform="translate(-6 -2.33)"/><path d="M745.25,104c7.18,4.08,14.25,4.06,21.36,0a4,4,0,0,1-2.12,4.89,16.86,16.86,0,0,1-9.44,2,16,16,0,0,1-7.15-1.71C745.52,107.92,744.79,106.43,745.25,104Z" transform="translate(-6 -2.33)"/><path d="M766.62,109.87c.46,2.48-.22,3.92-2.56,5.16-3.37,1.78-7,2-10.69,1.62a13.62,13.62,0,0,1-5.91-1.83c-2.08-1.27-2.67-2.67-2.2-4.95C752.36,113.92,759.44,113.94,766.62,109.87Z" transform="translate(-6 -2.33)"/><path d="M719.58,103.09h-1.74l.24-1.34,1.34-.12.08-.92-1.26-.12.29-1.39c1,.18,1.3-.3,1.6-1.13,1.19-3.24,4.29-4.65,8.13-3.8.38.09.75.21,1.24.35L728.94,97c-1.55-.32-3.08-.84-4.42.24a10.16,10.16,0,0,0-1.45,2h5.5l-.26,1.46h-5.1c-.34.78-.14,1.08.66,1.06,1.37,0,2.76,0,4.14,0,0,1.42,0,1.42-1.35,1.42h-3.27c.49,2.08,2,3.41,5.31,2.49l.62,2.24A7,7,0,0,1,719.58,103.09Z" transform="translate(-6 -2.33)"/><text class="cls-43" transform="translate(57.38 31.86)"><tspan class="cls-44">P</tspan><tspan x="19.26" y="0">aieme</tspan><tspan class="cls-45" x="116.42" y="0">n</tspan><tspan class="cls-46" x="137.39" y="0">ts sur pla</tspan><tspan class="cls-47" x="278.71" y="0">c</tspan><tspan class="cls-48" x="295.53" y="0">e</tspan></text><path class="cls-49" d="M58.29,21.64h-17A33.33,33.33,0,0,0,8,55V134.2A33.76,33.76,0,0,0,41.8,168l703-.92A33.22,33.22,0,0,0,778,133.82V55.23a34.5,34.5,0,0,0-34.59-34.5l-346.7.91" transform="translate(-6 -2.33)"/></svg>