<svg id="Calque_1" data-name="Calque 1" xmlns="http://www.w3.org/2000/svg" viewBox="0 0 171.83 162.08"><defs><style>.cls-1{fill:#c1272d;}</style></defs><path class="cls-1" d="M171.75,39.49v4.36a5.89,5.89,0,0,0-.32.92c-1.33,8.72-2.69,17.44-4,26.17-.67,4.64-1.64,9.29-1.69,14-.18,19.67-.07,39.36-.08,59,0,10.91-7.24,18.21-18.14,18.21H24.08a21.89,21.89,0,0,1-4.5-.38C11.43,160,6,153.14,6,144.59V84.2A13.14,13.14,0,0,0,5.88,82C4.05,69.88,2.43,57.69.28,45.6A17.39,17.39,0,0,1,12.94,25.28c1.6-.38,3.27-.48,5-.74V6C18,2,19.85.07,23.83.07h124c4,0,5.85,1.9,5.86,5.87V24.67l1.23.09a17,17,0,0,1,13,6.34A20.66,20.66,0,0,1,171.75,39.49ZM85.82,36.74H17.72c-4,0-6.19,2.35-5.63,6.09q2.06,13.76,4.19,27.5A125.49,125.49,0,0,1,18.08,91c-.18,17.6-.06,35.22-.06,52.83,0,4.61,1.76,6.35,6.4,6.35H147.19c4.76,0,6.49-1.71,6.49-6.43V83.53a16.08,16.08,0,0,1,.17-2.5q2.86-19.05,5.75-38.1c.45-3-.93-5.35-3.54-6a11.32,11.32,0,0,0-2.66-.19Zm55.82-24.66H30.07V24.61H141.64Z" transform="translate(0.08 -0.07)"/><path class="cls-1" d="M79.21,92c8.35,7,10.29,17.8,4.67,26.39-3.45,5.28-8.63,7.85-14.75,8.48-8,.82-15.08-1.17-20.75-7.13a15.4,15.4,0,0,1-4-10.89c0-2,.33-2.31,2.32-2.31h8.93c.06,1,.08,1.81.18,2.62a9.07,9.07,0,0,0,6.93,7.74c4.47,1.13,8.58-.12,10.83-3.29s2.34-9.9,0-13.23a6.76,6.76,0,0,0-5.28-2.87c-3-.23-5.92-.21-8.87-.29H57.17V87.49h2.09c3.17-.1,6.36-.08,9.52-.37a5.51,5.51,0,0,0,4.9-4.23A12.63,12.63,0,0,0,73.52,74a6.76,6.76,0,0,0-4.89-4.18c-5.5-1.37-10.94,1.44-12.15,6.38A31.41,31.41,0,0,0,56,80.1c-3.31,0-6.64.09-10-.1-.46,0-1.17-1.4-1.2-2.16-.16-5.34,2.12-9.61,6.1-13,4.51-3.88,9.87-5.29,15.71-5.06a29.6,29.6,0,0,1,6,.76c8.92,2.23,13.75,9,13.32,18.52C85.71,84.32,84.36,86.94,79.21,92Z" transform="translate(0.08 -0.07)"/><path class="cls-1" d="M122.21,59.65V126H110.69V71.68H97V62.86c0-.3.59-.8.94-.84,7.83-.85,15.66-1.65,23.5-2.45A4.13,4.13,0,0,1,122.21,59.65Z" transform="translate(0.08 -0.07)"/></svg>