<svg id="Calque_1" data-name="Calque 1" xmlns="http://www.w3.org/2000/svg" viewBox="0 0 488.52 435.13"><defs><style>.cls-1{fill:#c1272d;}</style></defs><path class="cls-1" d="M488.51,91.6q-2.37,13.55-4.75,27.08c-.51,3-1,5.92-1.52,9.38l-345.16-73c.82-5.62,1.58-11.06,2.4-16.49.85-5.65,1.8-11.29,2.63-16.95C144.38,6.13,156.58-2.53,172,.7Q239.1,14.77,306.21,29C359.5,40.28,412.75,51.75,466.09,62.77c11.47,2.37,18.73,8.49,22.42,19.32Z" transform="translate(0.01 -0.03)"/><path class="cls-1" d="M124.16,106.73c43.5,9.21,86.36,18.34,129.26,27.29a19.9,19.9,0,0,0,8.82-.29c18.12-4.75,36.09-10.09,54.27-14.57,11.45-2.82,22.54,3.63,26.68,14.74A127,127,0,0,1,348,150.36c.71,3.15,2.28,4.35,5.27,5q55,11.49,110,23.16c1.85.39,3.68.84,6,1.38-2.2,10.38-4.34,20.57-6.5,30.76C458,233,453.3,255.42,448.47,277.77c-3.35,15.51-14.9,22.78-30.47,19.47-10.05-2.14-20.11-4.22-31-6.5,2.81,10.18,5.23,19.63,8,29,3.18,10.56,1.81,20-6.84,27.26a32.12,32.12,0,0,1-11.82,5.78q-105.43,29.42-211,58.57l-80.78,22.4c-16.39,4.54-28.16-2-32.75-18.51Q26.44,324.16,1.23,233C-3,217.65,3.9,205.62,19.39,201.29c28-7.83,56-15.68,84-23.24,4.43-1.19,6.35-3.07,7.25-7.66,3.89-19.94,8.25-39.8,12.45-59.69C123.35,109.48,123.74,108.29,124.16,106.73ZM346.9,218.89,41.05,303.77c.49,2,.8,3.37,1.19,4.74q14,50.49,28.08,101c1.88,6.76,3,7.38,9.82,5.48l290.54-80.7c6.82-1.9,7.41-3,5.52-9.78q-8.88-32.14-17.77-64.29C354.66,246.58,350.9,233,346.9,218.89ZM29.47,262.46l306-84.92c-3.15-11.36-6.16-22.18-9.15-33-1.89-6.82-3-7.49-9.74-5.63L73.38,206.29l-48.63,13.5c-3.27.91-6.36,2.18-5.23,6.43C22.7,238.19,26.06,250.09,29.47,262.46Zm349-32.55c-.17,7.58,2.39,11.17,8,12.44q16.93,3.83,34,7.17c5.63,1.09,10.29-1.75,11.59-7.34,2.71-11.57,5.13-23.21,7.4-34.88,1-5.07-1.43-9.56-6.42-10.76-12.31-3-24.72-5.53-37.18-7.8a7.93,7.93,0,0,0-9.43,6l0,.17c-3.1,12.33-5.67,24.7-7.94,34.95Z" transform="translate(0.01 -0.03)"/><path class="cls-1" d="M71.16,347.35c.09-4.75,2.84-7.84,7.35-9.16q16.89-4.92,33.92-9.42c5.58-1.46,10.41,1,12.08,6.51q5.25,17.3,9.71,34.82c1.43,5.67-1.2,10.14-6.9,11.85q-17.07,5.13-34.38,9.49c-5.54,1.41-10-.69-11.53-5.78-3.66-11.8-6.75-23.78-10-35.7A15.18,15.18,0,0,1,71.16,347.35Z" transform="translate(0.01 -0.03)"/></svg>