<svg id="Calque_1" data-name="Calque 1" xmlns="http://www.w3.org/2000/svg" viewBox="0 0 371.31 401.44"><defs><style>.cls-1{fill:#c1272d;}</style></defs><path class="cls-1" d="M151.25,0c9.66,1.83,17.88,6,24.21,13.82a36.33,36.33,0,0,1-5.13,50.55,35.33,35.33,0,0,1-26,8.47l8.44,65.82H249v29H156.39c1.24,10,2.4,19.4,3.62,29.26h4.77c31.74,0,63.47.14,95.21-.09,8.86-.07,14.51,3.15,18.51,11.32,15.82,32.33,32.13,64.42,48.26,96.6.58,1.16,1.2,2.3,2,3.9l45.07-22.49L387,311.91c-1.17.67-2.12,1.28-3.12,1.78Q357.29,327,330.7,340.3c-10.12,5.05-17.54,2.61-22.58-7.44q-25.87-51.58-51.65-103.21c-1.3-2.6-2.75-3.5-5.64-3.49q-50.15.15-100.3.06c-11.82,0-16.84-4.09-18.32-15.71-3.7-28.86-7.19-57.75-10.75-86.63C118,95.77,114.93,67.62,111,39.58,108.8,24.33,119.09,6,137,1.43,138.65,1,140.24.48,141.86,0Z" transform="translate(-15.69 0)"/><path class="cls-1" d="M102.13,146.85c1,7.58,2,14.79,2.86,22,.86,7.39.65,7.19-5.78,10.93-36.92,21.43-55.34,53.27-54,96.23,1.36,43.46,34.15,80.55,71.5,91.59,62.68,18.54,121.23-22.56,131-80.27,1.21-7.14,1.37-14.46,2-21.87.47.75,1,1.52,1.46,2.36,6.54,13,13.14,26.09,19.5,39.23a8.2,8.2,0,0,1,.31,5.79c-16.22,44.14-47.3,72.45-92.54,84.51-53,14.15-111.69-9.34-141.32-55.67C1.71,286.33,10.88,216.55,59.4,172.11,71,161.55,88.2,151.28,102.13,146.85Z" transform="translate(-15.69 0)"/></svg>