<svg id="Calque_1" data-name="Calque 1" xmlns="http://www.w3.org/2000/svg" viewBox="0 0 371.99 367.68"><defs><style>.cls-1{fill:#c1272d;}</style></defs><path class="cls-1" d="M17.05,259.59c1.14-9.7,2.21-20,3.6-30.28,1.05-7.8.14-15.12-3.57-22.14-4-7.5-7.72-15.12-11.53-22.7C-4.32,164.81-.94,145.42,15,130.19q9.36-8.93,18.87-17.69A33.91,33.91,0,0,0,44.35,94.31c2.07-9.38,4.22-18.75,6.68-28A43.58,43.58,0,0,1,91.79,33.89c9.49-.39,19-1,28.45-1.56a32,32,0,0,0,17.5-6.92C145.41,19.6,153,13.72,160.9,8.19c15.58-10.93,34.94-10.86,50.48.15,7.44,5.27,14.73,10.76,21.93,16.36a35.77,35.77,0,0,0,21.76,7.83c9,.22,18,.8,27,1.51,19.72,1.56,35,15,39.66,34.74,2,8.62,4.11,17.24,6,25.88a33,33,0,0,0,10.09,17.56q9.81,9,19.4,18.23c15.6,14.91,19,34.4,9.44,53.69-3.05,6.14-5.81,12.48-9.39,18.32-6.25,10.19-7.33,20.93-5.31,32.44,1.23,7,1.93,14.1,2.63,21.19a43.37,43.37,0,0,1-25,43.94c-8.59,4-17.34,7.68-26.12,11.27a34.51,34.51,0,0,0-16.64,13.92c-4.67,7.39-9.51,14.68-14.35,22-11.57,17.39-30.32,24.26-50.31,18.42q-13.29-3.87-26.53-7.94a32.62,32.62,0,0,0-19.17,0c-10.89,3.2-21.65,7.13-32.76,9.19-17.55,3.26-32-3.2-42.53-17.52-5.62-7.63-10.62-15.73-15.69-23.76a35,35,0,0,0-16.85-14.25c-8.2-3.34-16.36-6.8-24.43-10.46C26.77,292.92,18,279.2,17.05,259.59Zm168.49,84c4.5.8,8.38,1.17,12.07,2.2,9.38,2.61,18.64,5.6,28,8.29,15,4.32,28.19-.53,36.82-13.54,4.9-7.38,9.79-14.79,14.55-22.27a45.69,45.69,0,0,1,21.82-18.11c8.43-3.47,16.83-7,25.12-10.77,13.2-6,20.23-18.45,18.68-32.79-.77-7.08-1.47-14.18-2.66-21.19-2.25-13.29-.75-25.77,6.21-37.57,3.68-6.22,6.65-12.86,9.87-19.34,7.15-14.39,4.73-28.19-6.88-39.23-6.79-6.46-13.66-12.84-20.46-19.29a42.15,42.15,0,0,1-12.31-21.45c-2.18-9.36-4.34-18.72-6.64-28C306.25,56.35,295.3,47,281.09,45.94c-8.85-.63-17.7-1.25-26.57-1.49a46.11,46.11,0,0,1-27.75-9.76C220,29.43,213,24.3,206.08,19.18c-13.26-9.77-27.21-9.67-40.43.23L144.34,35.35c-6,4.5-12.61,7.77-20.13,8.42q-15.67,1.36-31.4,2c-15.24.67-26.9,9.9-30.52,24.67-2.12,8.61-4.16,17.23-6,25.88a46.14,46.14,0,0,1-14.21,25c-6.27,5.73-12.41,11.62-18.6,17.43-12.23,11.47-14.72,25.17-7.26,40.08q5.94,11.88,12,23.71A44.09,44.09,0,0,1,32.92,228c-1,8.81-2,17.62-3.16,26.41-2.25,16.52,4.76,29.19,20.06,35.81,8.13,3.52,16.25,7,24.43,10.46a44.65,44.65,0,0,1,20.82,17.62c5,7.78,10,15.56,15.19,23.19,8.26,12.1,21.33,16.81,35.43,12.82,8.28-2.35,16.45-5.09,24.75-7.37,5.09-1.4,10.38-2.28,15.1-3.29Z" transform="translate(0 -0.04)"/><path class="cls-1" d="M185.85,61.2c67.35-.3,122.37,54.55,122.81,122.41.44,67.36-55.11,123-122.7,122.91A122.86,122.86,0,0,1,63.34,183.91C63.25,116.44,118.09,61.49,185.85,61.2ZM75.34,183.82A110.85,110.85,0,0,0,186,294.52c61,.06,110.65-49.65,110.7-110.63S247,73.25,186,73.2,75.36,122.86,75.34,183.82Z" transform="translate(0 -0.04)"/><path class="cls-1" d="M171,184.93c6-5.8,11.67-11.21,17.22-16.77,11-11,21.92-22.26,33-33.26,6.41-6.35,14.24-8.24,22.79-5.47s13.54,8.77,15.11,17.49c1.47,8.15-1.41,14.91-7.15,20.7q-23.5,23.67-46.92,47.45c-5.63,5.68-11.24,11.39-16.92,17-10,9.89-23.29,9.92-33.31,0q-17.58-17.4-35-35c-9.54-9.63-9.78-23.44-.71-32.49s22.93-8.69,32.5.81C158.16,171.9,164.61,178.5,171,184.93Zm77.19-34.07c-.77-4.56-3.42-8.37-7.43-9.85-4.84-1.77-8.69-.09-12.15,3.41q-25.68,26-51.45,52c-4.42,4.45-7,4.47-11.38.08-7.71-7.67-15.32-15.44-23.11-23-4.55-4.44-11-4.43-15.11-.28s-4.15,10.49.4,15.1q17.79,18,35.81,35.79c4.7,4.64,10.72,4.69,15.36,0q32.65-32.82,65.09-65.89C246.06,156.28,246.87,153.33,248.17,150.86Z" transform="translate(0 -0.04)"/></svg>