<svg id="Calque_1" data-name="Calque 1" xmlns="http://www.w3.org/2000/svg" viewBox="0 0 319.84 319.86"><defs><style>.cls-1{fill:#c1272d;}</style></defs><path class="cls-1" d="M159.84,0c88.25-.11,160,71.61,160,159.94S248,320,159.84,319.86A160,160,0,0,1,0,160.1C-.22,71.9,71.45.12,159.84,0ZM288,160.05c.17-70.36-57.52-128.13-128-128.17C89.66,31.83,32.33,89,31.89,159.61,31.46,229.82,89,287.61,159.72,288,229.93,288.33,287.79,230.62,288,160.05Z" transform="translate(0 0)"/><path class="cls-1" d="M175.86,144h4.53c9.5,0,19-.15,28.48.11a15.46,15.46,0,0,1,15,15.66c.07,8.68-6.35,15.87-15,16q-24.92.35-49.84,0a15,15,0,0,1-14.9-14.87q-.28-33,0-65.94c.07-8.39,7.26-14.93,15.66-15a15.66,15.66,0,0,1,16,15.11c.25,14.61.1,29.23.12,43.84Z" transform="translate(0 0)"/></svg>